<svg width="30" height="30" viewBox="0 0 30 30" fill="none" xmlns="http://www.w3.org/2000/svg">
<path d="M10.8544 30C6.38945 29.9743 2.69617 20.8599 2.69617 16.2182C2.69617 8.63592 8.38416 6.97596 10.5763 6.97596C11.5642 6.97596 12.619 7.36391 13.5494 7.70721C14.2001 7.94668 14.8729 8.19389 15.2472 8.19389C15.4712 8.19389 15.9991 7.98359 16.4651 7.79908C17.459 7.4034 18.6958 6.91162 20.1361 6.91162C20.1386 6.91162 20.1421 6.91162 20.1446 6.91162C21.2201 6.91162 24.4808 7.14764 26.4412 10.0916L26.9004 10.7817L26.2395 11.2804C25.2954 11.9928 23.5727 13.2922 23.5727 15.8663C23.5727 18.915 25.5236 20.0875 26.4609 20.6514C26.8746 20.9003 27.3029 21.1569 27.3029 21.7183C27.3029 22.0848 24.3778 29.9545 20.13 29.9545C19.0906 29.9545 18.3559 29.6421 17.7079 29.3666C17.0522 29.0877 16.4865 28.8474 15.5518 28.8474C15.078 28.8474 14.4789 29.0714 13.8446 29.3091C12.9778 29.6326 11.9968 30 10.8835 30H10.8544Z" fill="white"/>
<path d="M20.5853 0C20.6959 3.98883 17.8433 6.75609 14.994 6.58254C14.5245 3.39932 17.8429 0 20.5853 0Z" fill="white"/>
</svg>
