<svg width="26" height="30" viewBox="0 0 26 30" fill="none" xmlns="http://www.w3.org/2000/svg">
<g clip-path="url(#clip0)">
<path d="M19.1784 19.5849C22.475 17.6335 24.9742 16.1465 25.1897 16.031C25.8788 15.6359 26.5904 14.5903 25.1897 13.778C24.7374 13.5227 22.3024 12.082 19.1784 10.2241L14.8475 14.9392L19.1784 19.5849Z" fill="#081C27" stroke="#FFF2D9" stroke-width="1.8"/>
<path d="M14.8446 14.9392L1.05475 29.922C1.37841 29.9682 1.74387 29.8758 2.1747 29.6204C3.07923 29.0867 12.6679 23.4415 19.1754 19.5861L14.8446 14.9392Z" fill="#081C27" stroke="#FFF2D9" stroke-width="1.8"/>
<path d="M14.8454 14.9391L19.1762 10.2471C19.1762 10.2471 3.14541 0.815882 2.1755 0.258996C1.81005 0.0256116 1.40065 -0.0437103 1.03412 0.0256117L14.8454 14.9391Z" fill="#081C27" stroke="#FFF2D9" stroke-width="1.8"/>
<path d="M14.8454 14.9391L1.03409 0.0256348C0.47358 0.165434 -0.00012207 0.699214 -0.00012207 1.79104C-0.00012207 3.53333 -0.00012207 26.7158 -0.00012207 28.1565C-0.00012207 29.1559 0.366407 29.8757 1.05553 29.945L14.8454 14.9391Z" fill="#081C27" stroke="#FFF2D9" stroke-width="1.8"/>
</g>
<defs>
<clipPath id="clip0">
<rect width="26" height="30" fill="white" transform="translate(-0.00012207)"/>
</clipPath>
</defs>
</svg>
