<svg width="30" height="30" viewBox="0 0 30 30" fill="none" xmlns="http://www.w3.org/2000/svg">
<path d="M10.8542 30C6.38933 29.9743 2.69604 20.8599 2.69604 16.2182C2.69604 8.63592 8.38403 6.97596 10.5761 6.97596C11.564 6.97596 12.6189 7.36391 13.5493 7.70721C14.1999 7.94668 14.8728 8.19389 15.2471 8.19389C15.4711 8.19389 15.9989 7.98359 16.465 7.79908C17.4589 7.4034 18.6957 6.91162 20.1359 6.91162C20.1385 6.91162 20.142 6.91162 20.1445 6.91162C21.2199 6.91162 24.4807 7.14764 26.441 10.0916L26.9002 10.7817L26.2394 11.2804C25.2952 11.9928 23.5726 13.2922 23.5726 15.8663C23.5726 18.915 25.5235 20.0875 26.4608 20.6514C26.8745 20.9003 27.3028 21.1569 27.3028 21.7183C27.3028 22.0848 24.3777 29.9545 20.1299 29.9545C19.0905 29.9545 18.3558 29.6421 17.7078 29.3666C17.052 29.0877 16.4864 28.8474 15.5517 28.8474C15.0779 28.8474 14.4788 29.0714 13.8445 29.3091C12.9777 29.6326 11.9966 30 10.8834 30H10.8542Z" fill="black"/>
<path d="M20.5852 0C20.6958 3.98883 17.8431 6.75609 14.9938 6.58254C14.5243 3.39932 17.8428 0 20.5852 0Z" fill="black"/>
</svg>
