<svg width="20" height="20" viewBox="0 0 20 20" fill="none" xmlns="http://www.w3.org/2000/svg">
<path d="M10.0003 0C6.00632 0 2.75702 3.2493 2.75702 7.2432C2.75702 12.1998 9.23901 19.4763 9.51499 19.7836C9.77421 20.0723 10.2268 20.0718 10.4855 19.7836C10.7615 19.4763 17.2435 12.1998 17.2435 7.2432C17.2434 3.2493 13.9942 0 10.0003 0ZM10.0003 10.8875C7.99081 10.8875 6.35604 9.25266 6.35604 7.2432C6.35604 5.23375 7.99085 3.59898 10.0003 3.59898C12.0097 3.59898 13.6444 5.23379 13.6444 7.24324C13.6444 9.2527 12.0097 10.8875 10.0003 10.8875Z" fill="#081C27"/>
</svg>
