<svg width="100" height="100" viewBox="0 0 100 100" fill="none" xmlns="http://www.w3.org/2000/svg">
<rect opacity="0.1" width="100" height="100" rx="30" fill="#2C6D97"/>
<g clip-path="url(#clip0)">
<path d="M48.7536 38.2258L45.4958 36.3389C44.3217 35.6536 42.8143 36.05 42.1291 37.2242C42.1224 37.2358 42.1156 37.2475 42.109 37.2592L28.5205 61.3977C27.8447 62.5833 28.2498 64.0921 29.4287 64.7796L32.6913 66.6763C33.0608 66.8926 33.4807 67.0077 33.9088 67.0099C34.7999 67.0083 35.622 66.53 36.0635 65.756L49.6544 41.6053C50.3257 40.4216 49.925 38.9183 48.7536 38.2258Z" fill="#2196F3"/>
<path d="M31.3284 68.4853L28.0634 66.5911C27.4724 66.2182 26.7312 66.1749 26.1009 66.4766C25.4797 66.8065 25.0702 67.4311 25.0149 68.1323L24.4501 73.1016C24.3037 73.8251 24.6171 74.5642 25.239 74.9618C25.4905 75.1125 25.7785 75.1916 26.0717 75.1907C26.4939 75.1794 26.9025 75.0392 27.2428 74.7889L31.4525 71.8891C32.3749 71.3355 32.6738 70.139 32.1201 69.2166C31.9309 68.9014 31.6564 68.6462 31.3283 68.4805V68.4853H31.3284Z" fill="#2196F3"/>
<path d="M68.0476 66.4742C69.1467 66.0228 70.0222 65.1543 70.4824 64.0589C70.7558 63.2861 70.6812 62.4327 70.2778 61.7191C70.1683 61.517 69.8274 60.8645 69.304 59.8735C49.5798 22.0101 48.3989 22.6408 46.9088 23.398C46.3502 23.7016 46.0257 24.3084 46.0835 24.9416C46.0835 29.1635 61.9461 65.2932 64.3443 66.5082C64.9048 66.8133 65.53 66.9801 66.168 66.9952C66.7353 66.9761 67.2915 66.8323 67.7969 66.574L68.0476 66.4742Z" fill="#2196F3"/>
<path d="M73.3111 67.3215C71.9348 66.5463 70.2299 66.661 68.9699 67.6137C68.8686 67.6781 68.774 67.7522 68.6874 67.8352C67.2019 69.0752 67.0028 71.2846 68.2429 72.7701C68.2719 72.8049 68.3016 72.8392 68.332 72.8727C69.2461 73.9994 70.461 74.8436 71.8357 75.3074C72.285 75.4754 72.7152 75.6909 73.1189 75.9502C73.2769 76.4602 73.7487 76.8077 74.2826 76.8072H74.4068C74.9836 76.7485 75.439 76.2911 75.4952 75.714C75.6021 74.6259 75.9965 69.06 73.3111 67.3215Z" fill="#2196F3"/>
<path d="M51.0882 45.8369C50.7294 45.2352 49.9508 45.0382 49.3491 45.3969C49.1682 45.5048 49.017 45.656 48.9091 45.8369L44.0395 55.576C43.7383 56.1771 43.9814 56.9086 44.5826 57.2098C44.7526 57.2949 44.9401 57.3392 45.1304 57.3388H54.8695C55.5418 57.3388 56.0869 56.7937 56.0868 56.1213C56.0868 55.932 56.0426 55.7453 55.9578 55.576L51.0882 45.8369Z" fill="#2196F3"/>
<path d="M27.9019 56.7667L33.9888 47.0276C34.3451 46.4575 34.1719 45.7065 33.6017 45.35C33.4082 45.2291 33.1847 45.165 32.9565 45.165H23.2174C22.5451 45.1649 22 45.71 22 46.3824V56.1214C22 56.7938 22.5451 57.3389 23.2174 57.3389H26.8696C27.2893 57.3389 27.6795 57.1226 27.9019 56.7667Z" fill="#2196F3"/>
<path d="M76.7835 45.1649H67.0444C66.372 45.1649 65.8269 45.71 65.8271 46.3823C65.8271 46.5717 65.8712 46.7584 65.956 46.9277L70.8256 56.6667C71.032 57.0786 71.4532 57.3387 71.914 57.3387H76.7835C77.4558 57.3387 78.0009 56.7937 78.0009 56.1213V46.3822C78.0009 45.71 77.4558 45.1649 76.7835 45.1649Z" fill="#2196F3"/>
</g>
<defs>
<clipPath id="clip0">
<rect width="56" height="56" fill="white" transform="translate(22 22)"/>
</clipPath>
</defs>
</svg>
