<svg width="100" height="100" viewBox="0 0 100 100" fill="none" xmlns="http://www.w3.org/2000/svg">
<rect opacity="0.1" width="100" height="100" rx="30" fill="#2C6D97"/>
<g clip-path="url(#clip0)">
<path d="M79.9545 62.2831L75.522 29.7155C75.1433 26.9405 72.5994 24.6892 69.8383 24.6892H30.7192C27.9579 24.6892 26.0266 26.9405 26.4029 29.7155L30.8367 62.2831C31.2155 65.0569 33.7605 67.3082 36.5218 67.3082H75.6395C78.3994 67.3082 80.332 65.057 79.9545 62.2831Z" fill="#FFD15C"/>
<path d="M55.207 24.6892H45.3407L46.9044 36.1781H56.772L55.207 24.6892Z" fill="#415A6B"/>
<path d="M49.8814 67.3082C49.8814 71.727 46.2977 75.3107 41.8776 75.3107C37.4563 75.3107 33.8726 71.727 33.8726 67.3082C33.8726 62.8893 37.4563 59.3056 41.8776 59.3056C46.2976 59.3044 49.8814 62.8895 49.8814 67.3082Z" fill="#415A6B"/>
<path d="M45.3434 67.3082C45.3434 69.222 43.7909 70.7745 41.8771 70.7745C39.9621 70.7745 38.4108 69.222 38.4108 67.3082C38.4108 65.3944 39.962 63.8419 41.8771 63.8419C43.7909 63.8407 45.3434 65.3932 45.3434 67.3082Z" fill="#CED6E0"/>
<path d="M77.1692 67.3082C77.1692 71.727 73.5854 75.3107 69.1666 75.3107C64.7454 75.3107 61.1616 71.727 61.1616 67.3082C61.1616 62.8893 64.7454 59.3056 69.1666 59.3056C73.5854 59.3044 77.1692 62.8895 77.1692 67.3082Z" fill="#415A6B"/>
<path d="M72.6323 67.3082C72.6323 69.222 71.0798 70.7745 69.1648 70.7745C67.2498 70.7745 65.6973 69.222 65.6973 67.3082C65.6973 65.3944 67.2498 63.8419 69.1648 63.8419C71.0798 63.8419 72.6323 65.3932 72.6323 67.3082Z" fill="#CED6E0"/>
<path d="M35.2489 37.8905H21.55C20.6938 37.8905 20 37.1968 20 36.3418C20 35.4868 20.6938 34.7917 21.5488 34.7917H35.2476C36.1051 34.7917 36.7976 35.4868 36.7976 36.3418C36.7976 37.1968 36.1051 37.8905 35.2489 37.8905Z" fill="#F3705A"/>
<path d="M39.7373 45.4731H26.0373C25.1811 45.4731 24.4886 44.778 24.4886 43.9243C24.4886 43.068 25.1823 42.3743 26.0373 42.3743H39.7375C40.5949 42.3743 41.2875 43.0693 41.2875 43.9243C41.2875 44.7793 40.5936 45.4731 39.7373 45.4731Z" fill="#F3705A"/>
<path d="M30.8539 53.0543H21.55C20.6938 53.0543 20 52.3606 20 51.5069C20 50.6506 20.695 49.9568 21.55 49.9568H30.8539C31.7113 49.9568 32.4039 50.6506 32.4039 51.5069C32.4038 52.3619 31.7113 53.0543 30.8539 53.0543Z" fill="#F3705A"/>
</g>
<defs>
<clipPath id="clip0">
<rect width="60" height="60" fill="white" transform="translate(20 20)"/>
</clipPath>
</defs>
</svg>
