<svg width="100" height="100" viewBox="0 0 100 100" fill="none" xmlns="http://www.w3.org/2000/svg">
<rect opacity="0.1" width="100" height="100" rx="30" fill="#2C6D97"/>
<g clip-path="url(#clip0)">
<path d="M69.1956 44.4375C69.1956 33.6548 60.304 24.9488 49.4531 25.2517C39.1459 25.5393 30.8581 34.0327 30.8088 44.3438C30.7838 49.5896 32.8636 54.3492 36.2523 57.8277C39.3677 61.0257 41.1428 65.293 41.1428 69.7576V71.2268H58.8615V69.7576C58.8615 65.3144 60.598 61.0446 63.7086 57.8719C67.1025 54.4104 69.1956 49.6686 69.1956 44.4375Z" fill="url(#paint0_radial)"/>
<path d="M50.0018 62.3924C59.9181 62.3924 67.9568 54.3537 67.9568 44.4375C67.9568 34.5212 59.9181 26.4825 50.0018 26.4825C40.0856 26.4825 32.0469 34.5212 32.0469 44.4375C32.0469 54.3537 40.0856 62.3924 50.0018 62.3924Z" fill="url(#paint1_linear)"/>
<path d="M49.998 40.4884C56.4301 40.4884 61.6443 37.4575 61.6443 33.7188C61.6443 29.9801 56.4301 26.9493 49.998 26.9493C43.5658 26.9493 38.3516 29.9801 38.3516 33.7188C38.3516 37.4575 43.5658 40.4884 49.998 40.4884Z" fill="url(#paint2_linear)"/>
<path d="M58.5871 27.2683C59.8815 29.8519 60.6113 32.7676 60.6113 35.8541C60.6113 46.4544 52.0181 55.0476 41.4178 55.0476C38.3313 55.0476 35.4156 54.3179 32.832 53.0233C35.9833 59.3128 42.4876 63.631 50.0013 63.631C60.6016 63.631 69.1948 55.0378 69.1948 44.4375C69.1948 36.9237 64.8765 30.4196 58.5871 27.2683Z" fill="url(#paint3_linear)"/>
<path d="M49.998 66.423C56.4301 66.423 61.6443 61.2088 61.6443 54.7766C61.6443 48.3445 56.4301 43.1302 49.998 43.1302C43.5658 43.1302 38.3516 48.3445 38.3516 54.7766C38.3516 61.2088 43.5658 66.423 49.998 66.423Z" fill="url(#paint4_radial)"/>
<path d="M56.9867 79.4149C52.568 81.5284 47.4302 81.5284 43.0114 79.4149C41.8636 78.8659 41.1328 77.7064 41.1328 76.4339V66.8551H58.8652V76.4339C58.8653 77.7064 58.1346 78.8659 56.9867 79.4149Z" fill="url(#paint5_linear)"/>
<path d="M41.1328 68.9182L42.8909 70.6763H58.8653V68.9032H41.1328V68.9182Z" fill="url(#paint6_linear)"/>
<path d="M41.1328 73.2874L42.8909 75.0456H58.8653V73.2725H41.1328V73.2874Z" fill="url(#paint7_linear)"/>
<path d="M41.293 77.4384C41.3228 77.5315 41.3566 77.6231 41.3942 77.7128L42.8929 79.2115H57.3503C58.0004 78.7933 58.4774 78.1636 58.709 77.4384H41.293Z" fill="url(#paint8_linear)"/>
<path d="M54.9959 54.7767H54.6359C53.2088 54.7767 52.0478 55.9377 52.0478 57.3648V58.1984H50.0011H47.9542V57.3648C47.9542 55.9377 46.7932 54.7767 45.3661 54.7767H45.006C43.5789 54.7767 42.418 55.9377 42.418 57.3648C42.418 58.7919 43.5789 59.9529 45.006 59.9529H46.1997V66.6484H47.9542V59.9529H50.0011H52.0479V66.6484H53.8023V59.9529H54.9959C56.423 59.9529 57.584 58.7919 57.584 57.3648C57.584 55.9377 56.423 54.7767 54.9959 54.7767ZM46.1998 58.1984H45.0062C44.5465 58.1984 44.1726 57.8244 44.1726 57.3648C44.1726 56.9051 44.5465 56.5312 45.0062 56.5312H45.3662C45.8259 56.5312 46.1998 56.9051 46.1998 57.3648V58.1984ZM54.9959 58.1984H53.8023V57.3648C53.8023 56.9051 54.1762 56.5312 54.6359 56.5312H54.9959C55.4556 56.5312 55.8295 56.9051 55.8295 57.3648C55.8297 57.8244 55.4557 58.1984 54.9959 58.1984Z" fill="url(#paint9_linear)"/>
<path d="M54.9959 54.7767H54.6359C53.2088 54.7767 52.0478 55.9377 52.0478 57.3648V58.1984H50.0011H47.9542V57.3648C47.9542 55.9377 46.7932 54.7767 45.3661 54.7767H45.006C43.5789 54.7767 42.418 55.9377 42.418 57.3648C42.418 58.7919 43.5789 59.9529 45.006 59.9529H46.1997V66.6484H47.9542V59.9529H50.0011H52.0479V66.6484H53.8023V59.9529H54.9959C56.423 59.9529 57.584 58.7919 57.584 57.3648C57.584 55.9377 56.423 54.7767 54.9959 54.7767ZM46.1998 58.1984H45.0062C44.5465 58.1984 44.1726 57.8244 44.1726 57.3648C44.1726 56.9051 44.5465 56.5312 45.0062 56.5312H45.3662C45.8259 56.5312 46.1998 56.9051 46.1998 57.3648V58.1984ZM54.9959 58.1984H53.8023V57.3648C53.8023 56.9051 54.1762 56.5312 54.6359 56.5312H54.9959C55.4556 56.5312 55.8295 56.9051 55.8295 57.3648C55.8297 57.8244 55.4557 58.1984 54.9959 58.1984Z" fill="url(#paint10_linear)"/>
<path d="M58.3829 68.9875H41.6186C40.7788 68.9875 40.0982 68.3067 40.0982 67.467C40.0982 66.6272 40.779 65.9465 41.6186 65.9465H58.3829C59.2227 65.9465 59.9034 66.6273 59.9034 67.467C59.9035 68.3067 59.2227 68.9875 58.3829 68.9875Z" fill="url(#paint11_linear)"/>
<path d="M58.3829 73.36H41.6186C40.7788 73.36 40.0982 72.6792 40.0982 71.8396C40.0982 70.9998 40.779 70.3191 41.6186 70.3191H58.3829C59.2227 70.3191 59.9034 70.9999 59.9034 71.8396C59.9035 72.6792 59.2227 73.36 58.3829 73.36Z" fill="url(#paint12_linear)"/>
<path d="M58.3829 77.7325H41.6186C40.7788 77.7325 40.0982 77.0517 40.0982 76.212C40.0982 75.3722 40.779 74.6915 41.6186 74.6915H58.3829C59.2227 74.6915 59.9034 75.3723 59.9034 76.212C59.9035 77.0518 59.2227 77.7325 58.3829 77.7325Z" fill="url(#paint13_linear)"/>
<path d="M55.7727 79.9354C54.1597 79.3881 52.1626 79.064 49.9996 79.064C47.8367 79.064 45.8394 79.388 44.2266 79.9354C47.9436 81.354 52.0557 81.354 55.7727 79.9354Z" fill="url(#paint14_linear)"/>
<path d="M28.1298 45.8589H25.5849C24.9098 45.8589 24.3626 45.3117 24.3626 44.6366C24.3626 43.9616 24.9098 43.4144 25.5849 43.4144H28.1298C28.8049 43.4144 29.3521 43.9617 29.3521 44.6366C29.3521 45.3117 28.8049 45.8589 28.1298 45.8589Z" fill="url(#paint15_linear)"/>
<path d="M74.4117 45.8589H71.8668C71.1917 45.8589 70.6445 45.3117 70.6445 44.6366C70.6445 43.9616 71.1917 43.4144 71.8668 43.4144H74.4117C75.0868 43.4144 75.634 43.9617 75.634 44.6366C75.6341 45.3117 75.0868 45.8589 74.4117 45.8589Z" fill="url(#paint16_linear)"/>
<path d="M51.2225 22.7672V20.2222C51.2225 19.5473 50.6753 19 50.0003 19C49.3252 19 48.778 19.5473 48.778 20.2222V22.7672C48.778 23.4422 49.3252 23.9894 50.0003 23.9894C50.6753 23.9895 51.2225 23.4422 51.2225 22.7672Z" fill="url(#paint17_linear)"/>
<path d="M33.6732 30.0369L31.8736 28.2373C31.3963 27.76 31.3963 26.9861 31.8736 26.5087C32.3509 26.0314 33.1249 26.0314 33.6022 26.5087L35.4017 28.3083C35.879 28.7855 35.879 29.5595 35.4017 30.0369C34.9243 30.5143 34.1504 30.5143 33.6732 30.0369Z" fill="url(#paint18_linear)"/>
<path d="M66.3278 30.0369L68.1274 28.2373C68.6048 27.76 68.6048 26.9861 68.1274 26.5087C67.6501 26.0314 66.8762 26.0314 66.3988 26.5087L64.5993 28.3083C64.122 28.7856 64.122 29.5595 64.5993 30.0369C65.0767 30.5143 65.8506 30.5143 66.3278 30.0369Z" fill="url(#paint19_linear)"/>
</g>
<defs>
<radialGradient id="paint0_radial" cx="0" cy="0" r="1" gradientUnits="userSpaceOnUse" gradientTransform="translate(43.5902 37.2025) scale(30.3697)">
<stop stop-color="#FFDA45"/>
<stop offset="0.3043" stop-color="#FFCE3E"/>
<stop offset="0.8558" stop-color="#FFAE2B"/>
<stop offset="1" stop-color="#FFA425"/>
</radialGradient>
<linearGradient id="paint1_linear" x1="52.145" y1="46.5806" x2="32.6759" y2="27.1115" gradientUnits="userSpaceOnUse">
<stop stop-color="#FFDA45" stop-opacity="0"/>
<stop offset="1" stop-color="#FCEE21"/>
</linearGradient>
<linearGradient id="paint2_linear" x1="51.2672" y1="39.0956" x2="47.7773" y2="24.312" gradientUnits="userSpaceOnUse">
<stop stop-color="#FFDA45" stop-opacity="0"/>
<stop offset="1" stop-color="white"/>
</linearGradient>
<linearGradient id="paint3_linear" x1="50.6678" y1="51.7934" x2="77.0503" y2="2.72589" gradientUnits="userSpaceOnUse">
<stop stop-color="#FFDA45" stop-opacity="0"/>
<stop offset="1" stop-color="#B53759"/>
</linearGradient>
<radialGradient id="paint4_radial" cx="0" cy="0" r="1" gradientUnits="userSpaceOnUse" gradientTransform="translate(49.998 54.7766) scale(11.6464)">
<stop stop-color="#FCEE21" stop-opacity="0.6"/>
<stop offset="0.3263" stop-color="#FDEA28" stop-opacity="0.404"/>
<stop offset="0.7865" stop-color="#FEE03A" stop-opacity="0.128"/>
<stop offset="1" stop-color="#FFDA45" stop-opacity="0"/>
</radialGradient>
<linearGradient id="paint5_linear" x1="41.1328" y1="73.9276" x2="58.8653" y2="73.9276" gradientUnits="userSpaceOnUse">
<stop stop-color="#7E8595"/>
<stop offset="1" stop-color="#555A66"/>
</linearGradient>
<linearGradient id="paint6_linear" x1="49.9848" y1="70.5596" x2="50.0237" y2="68.4544" gradientUnits="userSpaceOnUse">
<stop stop-color="#555A66" stop-opacity="0"/>
<stop offset="1" stop-color="#555A66"/>
</linearGradient>
<linearGradient id="paint7_linear" x1="49.9848" y1="74.929" x2="50.0237" y2="72.8237" gradientUnits="userSpaceOnUse">
<stop stop-color="#555A66" stop-opacity="0"/>
<stop offset="1" stop-color="#555A66"/>
</linearGradient>
<linearGradient id="paint8_linear" x1="49.9703" y1="79.0948" x2="50.0092" y2="76.9925" gradientUnits="userSpaceOnUse">
<stop stop-color="#555A66" stop-opacity="0"/>
<stop offset="1" stop-color="#555A66"/>
</linearGradient>
<linearGradient id="paint9_linear" x1="50.0011" y1="59.0847" x2="50.0011" y2="52.9203" gradientUnits="userSpaceOnUse">
<stop stop-color="#FFDA45" stop-opacity="0"/>
<stop offset="1" stop-color="#FCEE21"/>
</linearGradient>
<linearGradient id="paint10_linear" x1="50.0011" y1="60.3324" x2="50.0011" y2="67.6636" gradientUnits="userSpaceOnUse">
<stop stop-color="#FFDA45" stop-opacity="0"/>
<stop offset="1" stop-color="#B53759"/>
</linearGradient>
<linearGradient id="paint11_linear" x1="49.9548" y1="66.3867" x2="50.068" y2="69.0457" gradientUnits="userSpaceOnUse">
<stop stop-color="#F9F7FC"/>
<stop offset="1" stop-color="#F0DDFC"/>
</linearGradient>
<linearGradient id="paint12_linear" x1="49.9548" y1="70.7593" x2="50.068" y2="73.4183" gradientUnits="userSpaceOnUse">
<stop stop-color="#7E8595"/>
<stop offset="1" stop-color="#555A66"/>
</linearGradient>
<linearGradient id="paint13_linear" x1="49.9548" y1="75.1319" x2="50.068" y2="77.7908" gradientUnits="userSpaceOnUse">
<stop stop-color="#7E8595"/>
<stop offset="1" stop-color="#555A66"/>
</linearGradient>
<linearGradient id="paint14_linear" x1="49.9172" y1="79.3378" x2="50.385" y2="82.7296" gradientUnits="userSpaceOnUse">
<stop stop-color="#F9F7FC"/>
<stop offset="1" stop-color="#F0DDFC"/>
</linearGradient>
<linearGradient id="paint15_linear" x1="26.8573" y1="44.3519" x2="26.8573" y2="46.8669" gradientUnits="userSpaceOnUse">
<stop stop-color="#92F37F"/>
<stop offset="1" stop-color="#4AB272"/>
</linearGradient>
<linearGradient id="paint16_linear" x1="73.1392" y1="44.3519" x2="73.1392" y2="46.8669" gradientUnits="userSpaceOnUse">
<stop stop-color="#92F37F"/>
<stop offset="1" stop-color="#4AB272"/>
</linearGradient>
<linearGradient id="paint17_linear" x1="49.7157" y1="21.4947" x2="52.2307" y2="21.4947" gradientUnits="userSpaceOnUse">
<stop stop-color="#92F37F"/>
<stop offset="1" stop-color="#4AB272"/>
</linearGradient>
<linearGradient id="paint18_linear" x1="33.8402" y1="28.0681" x2="32.0621" y2="29.8462" gradientUnits="userSpaceOnUse">
<stop stop-color="#92F37F"/>
<stop offset="1" stop-color="#4AB272"/>
</linearGradient>
<linearGradient id="paint19_linear" x1="66.1608" y1="28.0681" x2="67.9389" y2="29.8462" gradientUnits="userSpaceOnUse">
<stop stop-color="#92F37F"/>
<stop offset="1" stop-color="#4AB272"/>
</linearGradient>
<clipPath id="clip0">
<rect width="62" height="62" fill="white" transform="translate(19 19)"/>
</clipPath>
</defs>
</svg>
