<svg width="26" height="30" viewBox="0 0 26 30" fill="none" xmlns="http://www.w3.org/2000/svg">
<g clip-path="url(#clip0)">
<path d="M19.1785 19.5849C22.4751 17.6335 24.9744 16.1465 25.1898 16.031C25.8789 15.6359 26.5905 14.5903 25.1898 13.778C24.7375 13.5227 22.3026 12.082 19.1785 10.2241L14.8477 14.9392L19.1785 19.5849Z" fill="white" stroke="#081C27" stroke-width="1.8"/>
<path d="M14.8447 14.9392L1.05487 29.922C1.37853 29.9682 1.74399 29.8758 2.17482 29.6204C3.07936 29.0867 12.6681 23.4415 19.1756 19.5861L14.8447 14.9392Z" fill="white" stroke="#081C27" stroke-width="1.8"/>
<path d="M14.8455 14.9391L19.1764 10.2471C19.1764 10.2471 3.14554 0.815882 2.17563 0.258996C1.81017 0.0256116 1.40077 -0.0437103 1.03424 0.0256117L14.8455 14.9391Z" fill="white" stroke="#081C27" stroke-width="1.8"/>
<path d="M14.8455 14.9391L1.03421 0.0256348C0.473702 0.165434 0 0.699214 0 1.79104C0 3.53333 0 26.7158 0 28.1565C0 29.1559 0.366529 29.8757 1.05565 29.945L14.8455 14.9391Z" fill="white" stroke="#081C27" stroke-width="1.8"/>
</g>
<defs>
<clipPath id="clip0">
<rect width="26" height="30" fill="white"/>
</clipPath>
</defs>
</svg>
