<svg width="40" height="40" viewBox="0 0 40 40" fill="none" xmlns="http://www.w3.org/2000/svg">
<g opacity="0.15">
<path d="M9.56391 15.2367L9.49227 15.2349C8.62937 15.2157 7.91273 15.8951 7.89109 16.7578C7.86953 17.6204 8.55133 18.3373 9.41398 18.3589L9.49898 18.361C12.8769 18.4264 15.625 21.2294 15.625 24.6093C15.625 28.0556 12.8212 30.8593 9.375 30.8593C5.92875 30.8593 3.125 28.0556 3.125 24.6093C3.125 20.3048 4.14875 16.3328 6.16805 12.8035C7.67719 10.1656 9.21187 8.77222 9.24055 8.74644C9.88414 8.17512 9.94461 7.19011 9.37477 6.54426C8.80375 5.8973 7.81648 5.83551 7.16937 6.40636C7.09383 6.47308 5.29859 8.07426 3.53141 11.12C1.92031 13.8967 0 18.4908 0 24.6093C0 29.7787 4.20563 33.9843 9.375 33.9843C14.5444 33.9843 18.75 29.7787 18.75 24.6093C18.75 22.1374 17.7963 19.8049 16.0645 18.0414C14.3363 16.2816 12.0277 15.2856 9.56391 15.2367Z" fill="black"/>
<path d="M37.3145 18.0415C35.5862 16.2816 33.2777 15.2855 30.8138 15.2367L30.7423 15.2349C29.8822 15.2158 29.1627 15.8952 29.1411 16.7578C29.1195 17.6205 29.8013 18.3373 30.664 18.359L30.749 18.361C34.1269 18.4265 36.875 21.2295 36.875 24.6094C36.875 28.0556 34.0712 30.8594 30.625 30.8594C27.1788 30.8594 24.375 28.0556 24.375 24.6094C24.375 20.3048 25.3988 16.3327 27.418 12.8036C28.9271 10.1657 30.4618 8.77234 30.4905 8.74656C31.1341 8.17516 31.1945 7.19023 30.6247 6.54437C30.0538 5.89734 29.0664 5.83555 28.4193 6.40648C28.3438 6.4732 26.5485 8.07437 24.7813 11.1202C23.1703 13.8967 21.25 18.4909 21.25 24.6094C21.25 29.7787 25.4556 33.9844 30.625 33.9844C35.7944 33.9844 40 29.7787 40 24.6094C40 22.1374 39.0463 19.8049 37.3145 18.0415Z" fill="black"/>
</g>
</svg>
