<svg width="40" height="40" viewBox="0 0 40 40" fill="none" xmlns="http://www.w3.org/2000/svg">
<path d="M0 0V13.2812H13.2812V0H0ZM10.1562 10.1562H3.125V3.125H10.1562V10.1562Z" fill="white"/>
<path d="M8.20312 5.07812H5.07812V8.20312H8.20312V5.07812Z" fill="white"/>
<path d="M26.7188 0V13.2812H40V0H26.7188ZM36.875 10.1562H29.8438V3.125H36.875V10.1562Z" fill="white"/>
<path d="M34.9219 5.07812H31.7969V8.20312H34.9219V5.07812Z" fill="white"/>
<path d="M0 26.7188V40H13.2812V26.7188H0ZM10.1562 36.875H3.125V29.8438H10.1562V36.875Z" fill="white"/>
<path d="M8.20312 31.7969H5.07812V34.9219H8.20312V31.7969Z" fill="white"/>
<path d="M6.25 15.3906H3.125V18.5156H6.25V15.3906Z" fill="white"/>
<path d="M9.375 21.6406V18.5156H6.25V21.6406H9.29688V24.7656H12.4219V21.6406H9.375Z" fill="white"/>
<path d="M25 6.01562H21.875V9.14062H25V6.01562Z" fill="white"/>
<path d="M18.75 3.125H15.625V9.14062H18.75V3.125Z" fill="white"/>
<path d="M21.875 0H18.75V3.125H21.875V0Z" fill="white"/>
<path d="M18.75 9.14062V12.2656H15.625V15.3906H21.875V9.14062H18.75Z" fill="white"/>
<path d="M21.875 27.7344V24.6875H18.75V18.5156H15.625V24.7656H18.75V27.8125H21.875V30.8594H28.125V27.7344H21.875Z" fill="white"/>
<path d="M25 15.3906H21.875V21.6406H25V15.3906Z" fill="white"/>
<path d="M36.875 18.4375V15.3906H31.1719V18.5156H28.125V21.6406H31.25V24.6875H40V18.4375H36.875ZM36.875 21.5625H31.25V18.5156H36.875V21.5625Z" fill="white"/>
<path d="M40 27.7344H36.875V33.9844H40V27.7344Z" fill="white"/>
<path d="M28.125 21.6406H25V24.7656H28.125V21.6406Z" fill="white"/>
<path d="M31.25 30.8594H28.125V33.9844H31.25V30.8594Z" fill="white"/>
<path d="M34.375 27.7344H31.25V30.8594H34.375V27.7344Z" fill="white"/>
<path d="M31.25 33.9844V40H34.375V37.1094H36.875V33.9844H31.25Z" fill="white"/>
<path d="M18.75 27.8125H15.625V33.75H18.75V27.8125Z" fill="white"/>
<path d="M25 36.875V33.75H18.75V40H21.875V36.875H24.9219V40H28.0469V36.875H25Z" fill="white"/>
<path d="M15.625 15.3906H9.375V18.5156H15.625V15.3906Z" fill="white"/>
<path d="M3.125 18.5156H0V24.7656H3.125V18.5156Z" fill="white"/>
</svg>
