<svg width="145" height="25" viewBox="0 0 145 25" fill="none" xmlns="http://www.w3.org/2000/svg">
<g clip-path="url(#clip0_3056_25)">
<path fill-rule="evenodd" clip-rule="evenodd" d="M1.67616 8.14979C-0.558721 10.3847 -0.558721 14.0077 1.67616 16.2424L8.14995 22.7164C10.3848 24.9511 14.0079 24.9511 16.2425 22.7164L22.7165 16.2424C24.9512 14.0075 24.9512 10.3845 22.7165 8.14979L16.2425 1.67601C14.0077 -0.558668 10.3846 -0.558668 8.14995 1.67601L1.67616 8.14979ZM15.0285 15.0286C16.593 13.4642 16.593 10.928 15.0285 9.3638C13.4643 7.79938 10.9282 7.79938 9.36395 9.3638C7.79954 10.9282 7.79954 13.4642 9.36395 15.0286C10.9284 16.5928 13.4643 16.5928 15.0288 15.0286H15.0285Z" fill="#2962FF"/>
<path fill-rule="evenodd" clip-rule="evenodd" d="M34.0383 13.5214C34.0474 11.719 35.149 10.6629 36.733 10.6629C38.308 10.6629 39.2365 11.6734 39.2275 13.3941V21.6056H43.1056V12.7021C43.1147 9.42485 41.1847 7.44023 38.2715 7.44023C36.1505 7.44023 34.7303 8.44171 34.0929 10.0894H33.9291V2.96139H30.1602V21.6056H34.0383V13.5214ZM49.1196 21.8696C51.186 21.8696 52.5242 20.9682 53.2071 19.6665H53.3163V21.6056H56.9942V12.1742C56.9942 8.8423 54.1721 7.44023 51.0586 7.44023C47.7084 7.44023 45.5054 9.0426 44.9682 11.5916L48.5551 11.8828C48.8191 10.9543 49.6475 10.2716 51.0403 10.2716C52.3604 10.2716 53.116 10.9361 53.116 12.0831V12.1379C53.116 13.039 52.1601 13.1573 49.7295 13.3941C46.9618 13.649 44.4767 14.5775 44.4767 17.7C44.4767 20.4675 46.452 21.8696 49.1196 21.8696ZM50.2301 19.193C49.0376 19.193 48.1818 18.6378 48.1818 17.5727C48.1818 16.4801 49.0831 15.9429 50.4487 15.7519C51.2952 15.6336 52.6789 15.4333 53.1432 15.1236V16.6077C53.1432 18.0732 51.9326 19.193 50.2301 19.193ZM70.6118 11.6098C70.266 9.03332 68.1903 7.44023 64.6581 7.44023C61.0804 7.44023 58.7226 9.0972 58.7317 11.7919C58.7226 13.8855 60.0427 15.2421 62.7737 15.7884L65.1951 16.2708C66.415 16.5166 66.9704 16.9627 66.9885 17.6636C66.9704 18.4922 66.0691 19.0838 64.7127 19.0838C63.329 19.0838 62.4095 18.4921 62.1728 17.354L58.3585 17.5543C58.7226 20.2309 60.9984 21.8786 64.7037 21.8786C68.3269 21.8786 70.9213 20.0306 70.9306 17.2722C70.9213 15.2511 69.6014 14.0403 66.8886 13.4852L64.3577 12.9754C63.0558 12.693 62.5734 12.2469 62.5824 11.5733C62.5734 10.7358 63.5202 10.1896 64.7218 10.1896C66.0691 10.1896 66.8702 10.9271 67.0615 11.8282L70.6118 11.6098ZM76.2253 13.5214C76.2344 11.719 77.3358 10.6629 78.9198 10.6629C80.4948 10.6629 81.4233 11.6734 81.4143 13.3941V21.6056H85.2925V12.7021C85.3015 9.42485 83.3715 7.44023 80.4583 7.44023C78.3373 7.44023 76.9171 8.44171 76.2799 10.0894H76.1159V2.96139H72.3472V21.6056H76.2253V13.5214ZM91.1972 13.5214C91.2062 11.719 92.2805 10.6629 93.8463 10.6629C95.403 10.6629 96.3408 11.6825 96.3315 13.3941V21.6056H100.21V12.7021C100.21 9.44319 98.298 7.44023 95.3848 7.44023C93.3091 7.44023 91.8071 8.45984 91.179 10.0894H91.015V7.62239H87.319V21.6056H91.1972V13.5214ZM108.559 21.8786C112.801 21.8786 115.441 18.9745 115.441 14.6686C115.441 10.3352 112.801 7.44023 108.559 7.44023C104.316 7.44023 101.676 10.3352 101.676 14.6686C101.676 18.9745 104.316 21.8786 108.559 21.8786ZM108.577 18.8744C106.62 18.8744 105.618 17.081 105.618 14.6412C105.618 12.2014 106.62 10.3991 108.577 10.3991C110.498 10.3991 111.499 12.2016 111.499 14.6412C111.499 17.081 110.498 18.8744 108.577 18.8744ZM122.09 21.8331C124.348 21.8331 125.522 20.5314 126.059 19.3661H126.223V21.6056H130.047V2.96118H126.178V9.97113H126.059C125.54 8.83323 124.42 7.44023 122.081 7.44023C119.013 7.44023 116.418 9.82544 116.418 14.6321C116.418 19.3115 118.904 21.8331 122.09 21.8331ZM123.319 18.7471C121.416 18.7471 120.378 17.0536 120.378 14.614C120.378 12.1923 121.398 10.5265 123.319 10.5265C125.203 10.5265 126.26 12.1196 126.26 14.614C126.26 17.1082 125.185 18.7471 123.319 18.7471ZM138.582 21.8786C142.042 21.8786 144.372 20.1945 144.918 17.5999L141.332 17.3633C140.94 18.4283 139.939 18.9836 138.646 18.9836C136.707 18.9836 135.478 17.7 135.478 15.6153V15.6062H145V14.541C145 9.78896 142.123 7.44023 138.427 7.44023C134.313 7.44023 131.645 10.3624 131.645 14.6777C131.645 19.1112 134.276 21.8786 138.582 21.8786ZM135.478 13.2029C135.56 11.6098 136.771 10.3352 138.491 10.3352C140.175 10.3352 141.341 11.537 141.35 13.2029H135.478Z" fill="white"/>
</g>
<defs>
<clipPath id="clip0_3056_25">
<rect width="145" height="24.9219" fill="white"/>
</clipPath>
</defs>
</svg>
