<svg width="167" height="25" viewBox="0 0 167 25" fill="none" xmlns="http://www.w3.org/2000/svg">
<g clip-path="url(#clip0_3056_29)">
<path d="M43.8972 7.7238C46.0545 7.7238 47.6271 8.46474 48.6907 9.68453V8.1724H53.5194V24.2615H48.6907V22.7494C47.6271 23.9742 46.0545 24.7101 43.8972 24.7101C39.6834 24.7101 36.2055 21.0104 36.2055 16.2169C36.2055 11.4235 39.6784 7.7238 43.8972 7.7238ZM123.113 1.73575V24.2564H118.284V22.7443C117.221 23.9691 115.648 24.705 113.491 24.705C109.277 24.705 105.799 21.0054 105.799 16.2119C105.799 11.4184 109.272 7.71876 113.491 7.71876C115.648 7.71876 117.221 8.4597 118.284 9.67949V1.73575H123.113ZM88.6866 7.66835C93.3389 7.66835 97.0789 11.3076 97.0789 16.0254C97.0789 20.7433 93.3439 24.3825 88.6866 24.3825C84.0342 24.3825 80.2993 20.7433 80.2993 16.0254C80.2993 11.3076 84.0342 7.66835 88.6866 7.66835ZM8.49314 0.863758C12.1928 0.863758 15.0911 2.63295 16.7292 5.94956L12.3844 8.48995C11.6132 6.88205 10.5496 5.88404 8.49314 5.88404C6.88524 5.88404 6.07877 6.69051 6.07877 7.58771C6.07877 8.61596 6.62818 9.32666 10.1313 10.3852L10.3365 10.4471C10.5421 10.5092 10.7489 10.5722 10.956 10.6368L11.1632 10.7019C11.1977 10.7128 11.2322 10.7238 11.2667 10.7349L11.4738 10.8018C14.4737 11.7831 17.3694 13.2222 17.3694 17.3662C17.3694 21.711 13.8965 24.2817 9.00223 24.2817C4.27933 24.2867 1.25507 22.0336 0 18.722L4.44063 16.1464C5.2471 18.0113 6.62818 19.2664 9.16856 19.2664C11.6132 19.2664 12.2231 18.3037 12.2231 17.4317C12.2231 16.0506 10.9378 15.5012 7.55562 14.5687C4.21381 13.6362 0.932482 12.0283 0.932482 7.71876C0.932482 3.3739 4.60192 0.863758 8.49314 0.863758ZM133.748 7.29536C138.446 7.29536 141.919 10.9295 141.919 15.7885C141.919 16.4639 141.853 17.1091 141.727 17.719H130.305C130.92 19.3975 132.397 19.9771 134.166 19.9771C135.487 19.9771 136.611 19.463 137.256 18.7523L141.117 20.9701C139.54 23.1576 137.16 24.2817 134.101 24.2817C128.597 24.2817 125.189 20.582 125.189 15.7885C125.189 10.995 128.662 7.29536 133.748 7.29536ZM66.7153 0.0270449V4.91627C64.815 4.7449 63.56 5.32455 63.56 7.29032H66.7153V12.1795H63.56V24.2615H58.4691V12.1795H56.1959V7.29032H58.4691C58.4691 2.53718 61.0801 -0.310665 66.7153 0.0270449ZM79.5382 0.0270449V4.91627C77.6379 4.7449 76.3829 5.32455 76.3829 7.29032H79.5382V12.1795H76.3829V24.2615H71.292V12.1795H69.0188V7.29032H71.292C71.292 2.53718 73.903 -0.310665 79.5382 0.0270449ZM153.849 7.84981V13.3187C151.853 12.9961 149.021 13.8026 149.021 16.9881V24.2615H144.192V8.1724H149.021V11.0354C149.666 8.87806 151.823 7.84981 153.849 7.84981ZM24.5167 1.53918V24.2564H19.6476V1.53918H24.5167ZM103.833 1.60974L103.868 24.1456L103.833 24.1304H99.0044V1.60974H103.833ZM44.865 12.2904C42.6472 12.2904 41.0342 13.8026 41.0342 16.2169C41.0342 18.6313 42.6421 20.1434 44.865 20.1434C47.0878 20.1384 48.6957 18.6263 48.6957 16.2169C48.6957 13.8026 47.0878 12.2904 44.865 12.2904ZM114.458 12.2904C112.241 12.2904 110.628 13.8026 110.628 16.2169C110.628 18.6313 112.236 20.1434 114.458 20.1434C116.681 20.1384 118.289 18.6263 118.289 16.2169C118.289 13.8026 116.681 12.2904 114.458 12.2904ZM88.6866 12.2904C86.6301 12.2904 85.0474 13.7774 85.0474 16.0254C85.0474 18.2734 86.6301 19.7604 88.6866 19.7604C90.7431 19.7604 92.3258 18.2734 92.3258 16.0254C92.3258 13.7774 90.7431 12.2904 88.6866 12.2904ZM133.718 11.5797C131.883 11.5797 130.663 12.482 130.21 14.1201H137.13C136.616 12.2552 135.17 11.5797 133.718 11.5797Z" fill="white"/>
<path d="M36.4121 8.03129L30.5047 16.1464L36.5734 24.2615H31.0541L25.8624 17.089L25.1719 16.1464L30.7315 8.03129H36.4121ZM160.644 8.02625L166.203 16.1414L165.513 17.0839L160.321 24.2565H154.802L160.871 16.1414L154.963 8.02625H160.644Z" fill="#FF6B35"/>
</g>
<defs>
<clipPath id="clip0_3056_29">
<rect width="166.234" height="25" fill="white"/>
</clipPath>
</defs>
</svg>
