<svg width="141" height="25" viewBox="0 0 141 25" fill="none" xmlns="http://www.w3.org/2000/svg">
<g clip-path="url(#clip0_3056_33)">
<path d="M134.132 5.94136C138.078 5.94136 140.441 8.4612 140.441 12.5632C140.441 13.0441 140.391 13.5778 140.391 13.6283H131.254C131.331 15.3114 132.759 16.5377 134.473 16.5377C136.084 16.5377 136.967 15.7322 137.383 14.5901L140.261 15.4509C139.612 17.6582 137.585 19.5024 134.442 19.5024C130.936 19.5024 127.847 16.9825 127.847 12.6738C127.847 8.58624 130.859 5.94136 134.132 5.94136ZM62.035 6.33569V13.7053C62.035 15.1335 62.7563 16.278 64.3721 16.278C65.9037 16.278 66.7765 15.2393 66.7765 13.7582V6.33569H70.2293V16.8022C70.2309 17.5742 70.2742 18.3455 70.3591 19.1128H67.0651C66.9939 18.6571 66.9594 18.1964 66.9617 17.7351C66.2596 18.9373 64.7785 19.4495 63.4296 19.4495C60.3375 19.4495 58.5726 17.1917 58.5726 14.4002V6.33569H62.035ZM97.4114 0.31258L97.4138 16.8022C97.4138 17.6582 97.4667 18.5935 97.5172 19.1128H94.2207C94.1354 18.6237 94.0919 18.1282 94.0909 17.6317C93.5186 18.6464 92.2202 19.4254 90.5059 19.4254C86.8704 19.4254 84.2736 16.569 84.2736 12.693C84.2736 8.95411 86.7934 6.0207 90.4025 6.0207C92.6098 6.0207 93.6485 6.92958 94.0091 7.60282V0.31258H97.4114ZM124.358 2.51985V6.33569H126.931V9.40134H124.358V14.7488C124.358 15.8669 124.877 16.2299 125.865 16.2299C126.223 16.2339 126.58 16.1993 126.931 16.1265V18.995C126.307 19.2246 125.645 19.3307 124.981 19.3076C122.49 19.3076 120.932 17.8265 120.932 15.3595V9.40134H119.26V6.33569C120.609 6.33569 121.232 5.45326 121.232 4.31115V2.51985H124.358ZM50.8616 0.702098C54.4442 0.702098 56.4687 2.80357 56.4687 5.66004C56.4687 7.55714 55.3266 9.08876 53.795 9.60812C55.5863 10.0505 57.041 11.6855 57.041 13.9698C57.041 16.9561 54.8073 19.1128 51.3545 19.1128H44.2422V0.702098H50.8616ZM76.4616 6.33569V19.1128H73.0112V6.33569H76.4616ZM82.6963 0.31258V19.1128H79.2435V0.31258H82.6963ZM103.456 0.31258V11.0892L107.871 6.33569H112.391L107.274 11.712L112.494 19.1128H108.263L104.896 14.2294L103.454 15.737V19.1032H100.003V0.31258H103.456ZM117.306 6.33569V19.1128H113.851V6.33569H117.306ZM90.9219 9.11521C89.157 9.11521 87.7624 10.4136 87.7624 12.6978C87.7624 14.982 89.1041 16.3333 90.9219 16.3333C92.6867 16.3333 94.0644 14.9844 94.0644 12.6738C94.0644 10.3631 92.6867 9.11521 90.9219 9.11521ZM50.7342 11.2696H47.7695V16.1265H50.6789C52.4197 16.1265 53.4584 15.2177 53.4584 13.7365C53.4584 12.2554 52.5231 11.2696 50.7342 11.2696ZM131.326 11.2696H137.039C136.988 9.99764 136.156 8.75214 134.182 8.75214C132.712 8.6977 131.457 9.80412 131.326 11.2696ZM50.2941 3.71245H47.7695V8.30972H50.3158C51.9508 8.30972 52.939 7.40085 52.939 5.99906C52.939 4.59728 52.0301 3.71245 50.2941 3.71245ZM74.7256 1.72022e-06C75.8977 0.000149789 76.8495 0.94717 76.8556 2.11929C76.8617 3.2914 75.9198 4.24824 74.7477 4.26054C73.5756 4.27284 72.6138 3.33598 72.5953 2.16399C72.5856 1.59299 72.8058 1.04207 73.2065 0.635097C73.6071 0.228127 74.1545 -0.000723885 74.7256 1.72022e-06ZM115.565 1.72022e-06C116.737 0.000149789 117.689 0.94717 117.695 2.11929C117.701 3.2914 116.759 4.24824 115.587 4.26054C114.415 4.27284 113.453 3.33598 113.435 2.16399C113.425 1.59299 113.645 1.04207 114.046 0.635097C114.446 0.228127 114.994 -0.000723885 115.565 1.72022e-06Z" fill="white"/>
<path d="M0 0.942505L12.0222 6.83337V18.8555L0 12.9647V0.942505Z" fill="#30F2A2"/>
<path d="M24.1641 0.942505L36.066 6.83336L24.1641 12.9647V0.942505Z" fill="#30F2A2"/>
<path d="M24.1619 0.942505L12.0195 6.83337V18.8555L24.1619 12.9647V0.942505Z" fill="#14CC80"/>
<path d="M36.066 6.83337L24.1641 12.9647V24.9868L36.066 18.8555V6.83337Z" fill="#14CC80"/>
</g>
<defs>
<clipPath id="clip0_3056_33">
<rect width="140.659" height="25" fill="white"/>
</clipPath>
</defs>
</svg>
