<svg width="15" height="20" viewBox="0 0 15 20" fill="none" xmlns="http://www.w3.org/2000/svg">
<g opacity="0.6">
<path d="M15 16.8931V10.082C15 8.85246 13.9969 7.84934 12.7674 7.84934H12.2053V4.70726C12.2053 2.11163 10.0937 0 7.49805 0C4.90242 0 2.79469 2.11553 2.79469 4.70726V5.2498C2.79469 5.62061 3.09524 5.91725 3.46214 5.91725C3.82904 5.91725 4.13349 5.61671 4.13349 5.2498V4.70726C4.13349 2.84934 5.64403 1.3388 7.50195 1.3388C9.35988 1.3388 10.8704 2.84934 10.8704 4.70726V7.84934H2.23263C1.00312 7.84934 0 8.84855 0 10.082V16.8931C0 18.1226 1.00312 19.1257 2.23263 19.1257H12.7713C14.0008 19.1218 15 18.1226 15 16.8931ZM1.3427 16.8931V10.082C1.3427 9.59016 1.74473 9.18813 2.23653 9.18813H12.7713C13.2631 9.18813 13.6651 9.59016 13.6651 10.082V16.8931C13.6651 17.3849 13.2631 17.7869 12.7713 17.7869H2.23263C1.74083 17.783 1.3427 17.3849 1.3427 16.8931Z" fill="white"/>
<path d="M7.49948 11.9907C7.12867 11.9907 6.82812 12.2913 6.82812 12.6582V14.3873C6.82812 14.7581 7.12867 15.0547 7.49948 15.0547C7.87028 15.0547 8.16692 14.7542 8.16692 14.3873V12.6582C8.16692 12.2913 7.87028 11.9907 7.49948 11.9907Z" fill="white"/>
</g>
</svg>
