<svg width="209" height="273" viewBox="0 0 209 273" fill="none" xmlns="http://www.w3.org/2000/svg">
<g filter="url(#filter0_d)">
<circle cx="72.5" cy="112.5" r="86.5" fill="white"/>
</g>
<path d="M51.7123 104.378C51.7123 105.587 51.8421 106.568 52.0693 107.287C52.3289 108.006 52.6534 108.791 53.1077 109.641C53.2699 109.902 53.3348 110.164 53.3348 110.393C53.3348 110.72 53.1401 111.046 52.7183 111.373L50.6739 112.746C50.3819 112.942 50.0898 113.04 49.8302 113.04C49.5057 113.04 49.1812 112.877 48.8567 112.583C48.4024 112.092 48.013 111.569 47.6885 111.046C47.364 110.491 47.0395 109.87 46.6825 109.118C44.1514 112.125 40.9713 113.629 37.1421 113.629C34.4163 113.629 32.2421 112.844 30.6521 111.275C29.062 109.706 28.2507 107.614 28.2507 104.999C28.2507 102.221 29.2242 99.9651 31.2037 98.2653C33.1832 96.5655 35.8117 95.7156 39.154 95.7156C40.2574 95.7156 41.3931 95.8136 42.5938 95.9771C43.7944 96.1405 45.0276 96.402 46.3256 96.6962V94.31C46.3256 91.8256 45.8064 90.0932 44.8004 89.0798C43.762 88.0665 42.0097 87.5762 39.511 87.5762C38.3752 87.5762 37.207 87.7069 36.0064 88.0011C34.8057 88.2953 33.6375 88.6549 32.5017 89.1125C31.9825 89.3413 31.5931 89.4721 31.366 89.5375C31.1388 89.6028 30.9766 89.6355 30.8468 89.6355C30.3925 89.6355 30.1653 89.3086 30.1653 88.6222V87.0205C30.1653 86.4974 30.2302 86.1052 30.3925 85.8764C30.5547 85.6475 30.8468 85.4187 31.3011 85.1899C32.4368 84.6015 33.7997 84.1112 35.3898 83.7189C36.9799 83.294 38.6673 83.0978 40.4521 83.0978C44.3136 83.0978 47.1368 83.9804 48.954 85.7456C50.7388 87.5108 51.6474 90.1912 51.6474 93.787V104.378H51.7123ZM38.5375 109.347C39.6083 109.347 40.7117 109.15 41.8799 108.758C43.0481 108.366 44.0865 107.647 44.9627 106.666C45.4819 106.045 45.8713 105.359 46.066 104.574C46.2607 103.79 46.3905 102.842 46.3905 101.73V100.357C45.4494 100.129 44.4434 99.9324 43.405 99.8016C42.3666 99.6709 41.3607 99.6055 40.3547 99.6055C38.1805 99.6055 36.5905 100.03 35.5196 100.913C34.4487 101.796 33.9295 103.038 33.9295 104.672C33.9295 106.209 34.3189 107.353 35.1302 108.137C35.909 108.954 37.0448 109.347 38.5375 109.347ZM64.5951 112.877C64.011 112.877 63.6216 112.779 63.362 112.55C63.1024 112.354 62.8752 111.896 62.6805 111.275L55.0547 86.0071C54.86 85.3533 54.7627 84.9284 54.7627 84.6996C54.7627 84.1766 55.0223 83.8824 55.5415 83.8824H58.7216C59.3382 83.8824 59.76 83.9804 59.9872 84.2093C60.2468 84.4054 60.4415 84.863 60.6362 85.4841L66.0878 107.124L71.1501 85.4841C71.3123 84.8303 71.507 84.4054 71.7666 84.2093C72.0262 84.0131 72.4805 83.8824 73.0646 83.8824H75.6607C76.2772 83.8824 76.6991 83.9804 76.9587 84.2093C77.2183 84.4054 77.4454 84.863 77.5752 85.4841L82.7024 107.385L88.3163 85.4841C88.511 84.8303 88.7382 84.4054 88.9653 84.2093C89.2249 84.0131 89.6468 83.8824 90.2309 83.8824H93.2487C93.768 83.8824 94.06 84.1439 94.06 84.6996C94.06 84.863 94.0276 85.0265 93.9951 85.2226C93.9627 85.4187 93.8978 85.6802 93.768 86.0398L85.9474 111.308C85.7527 111.962 85.5256 112.387 85.266 112.583C85.0064 112.779 84.5845 112.91 84.0329 112.91H81.2421C80.6256 112.91 80.2037 112.812 79.9441 112.583C79.6845 112.354 79.4574 111.929 79.3276 111.275L74.2978 90.1912L69.3004 111.243C69.1381 111.896 68.9434 112.321 68.6838 112.55C68.4242 112.779 67.9699 112.877 67.3858 112.877H64.5951ZM106.294 113.76C104.606 113.76 102.919 113.563 101.296 113.171C99.6739 112.779 98.4084 112.354 97.5646 111.864C97.0454 111.569 96.6885 111.243 96.5587 110.948C96.4289 110.654 96.364 110.327 96.364 110.033V108.366C96.364 107.68 96.6236 107.353 97.1103 107.353C97.305 107.353 97.4997 107.385 97.6944 107.451C97.8891 107.516 98.1812 107.647 98.5057 107.778C99.609 108.268 100.81 108.66 102.075 108.922C103.373 109.183 104.639 109.314 105.937 109.314C107.981 109.314 109.571 108.954 110.675 108.235C111.778 107.516 112.362 106.47 112.362 105.13C112.362 104.215 112.07 103.463 111.486 102.842C110.902 102.221 109.798 101.665 108.208 101.142L103.503 99.6709C101.134 98.919 99.3819 97.8076 98.311 96.3366C97.2401 94.8984 96.6885 93.2966 96.6885 91.5968C96.6885 90.2239 96.9805 89.0144 97.5646 87.9684C98.1488 86.9224 98.9276 86.0071 99.9011 85.288C100.875 84.5361 101.978 83.9804 103.276 83.5882C104.574 83.1959 105.937 83.0325 107.365 83.0325C108.079 83.0325 108.825 83.0652 109.539 83.1632C110.285 83.2613 110.967 83.392 111.648 83.5228C112.297 83.6862 112.914 83.8497 113.498 84.0458C114.082 84.2419 114.536 84.4381 114.861 84.6342C115.315 84.8957 115.639 85.1572 115.834 85.4514C116.029 85.7129 116.126 86.0725 116.126 86.5301V88.0665C116.126 88.7529 115.867 89.1125 115.38 89.1125C115.12 89.1125 114.698 88.9818 114.147 88.7203C112.297 87.8704 110.22 87.4454 107.916 87.4454C106.067 87.4454 104.606 87.7396 103.6 88.3607C102.594 88.9818 102.075 89.9297 102.075 91.2699C102.075 92.1852 102.4 92.9697 103.049 93.5908C103.698 94.2119 104.898 94.833 106.618 95.3887L111.226 96.8597C113.563 97.6115 115.25 98.6575 116.256 99.9977C117.262 101.338 117.749 102.874 117.749 104.574C117.749 105.98 117.457 107.255 116.905 108.366C116.321 109.477 115.542 110.458 114.536 111.243C113.53 112.06 112.33 112.648 110.934 113.073C109.474 113.531 107.949 113.76 106.294 113.76Z" fill="#252F3E"/>
<path d="M112.427 129.646C101.751 137.589 86.2397 141.806 72.9026 141.806C54.2112 141.806 37.3695 134.844 24.649 123.272C23.643 122.357 24.5516 121.114 25.7523 121.834C39.5112 129.875 56.4828 134.745 74.0384 134.745C85.8828 134.745 98.8953 132.261 110.87 127.162C112.654 126.345 114.179 128.339 112.427 129.646ZM116.873 124.547C115.51 122.782 107.852 123.697 104.379 124.122C103.341 124.252 103.179 123.337 104.12 122.651C110.22 118.336 120.248 119.578 121.416 121.016C122.584 122.487 121.091 132.588 115.38 137.426C114.504 138.178 113.66 137.785 114.05 136.805C115.348 133.569 118.236 126.279 116.873 124.547Z" fill="#FF9900"/>
<defs>
<filter id="filter0_d" x="-64" y="0" width="273" height="273" filterUnits="userSpaceOnUse" color-interpolation-filters="sRGB">
<feFlood flood-opacity="0" result="BackgroundImageFix"/>
<feColorMatrix in="SourceAlpha" type="matrix" values="0 0 0 0 0 0 0 0 0 0 0 0 0 0 0 0 0 0 127 0"/>
<feOffset dy="24"/>
<feGaussianBlur stdDeviation="25"/>
<feColorMatrix type="matrix" values="0 0 0 0 0.290347 0 0 0 0 0.440454 0 0 0 0 0.616667 0 0 0 0.08 0"/>
<feBlend mode="normal" in2="BackgroundImageFix" result="effect1_dropShadow"/>
<feBlend mode="normal" in="SourceGraphic" in2="effect1_dropShadow" result="shape"/>
</filter>
</defs>
</svg>
