<svg width="61" height="47" viewBox="0 0 61 47" fill="none" xmlns="http://www.w3.org/2000/svg">
<g opacity="0.5">
<circle cx="2.5" cy="2.5" r="2.5" fill="#FFA870"/>
<circle cx="16.5" cy="2.5" r="2.5" fill="#FFA870"/>
<circle cx="30.5" cy="2.5" r="2.5" fill="#FFA870"/>
<circle cx="44.5" cy="2.5" r="2.5" fill="#FFA870"/>
<circle cx="58.5" cy="2.5" r="2.5" fill="#FFA870"/>
<circle cx="2.5" cy="16.5" r="2.5" fill="#FFA870"/>
<circle cx="16.5" cy="16.5" r="2.5" fill="#FFA870"/>
<circle cx="30.5" cy="16.5" r="2.5" fill="#FFA870"/>
<circle cx="44.5" cy="16.5" r="2.5" fill="#FFA870"/>
<circle cx="58.5" cy="16.5" r="2.5" fill="#FFA870"/>
<circle cx="2.5" cy="30.5" r="2.5" fill="#FFA870"/>
<circle cx="16.5" cy="30.5" r="2.5" fill="#FFA870"/>
<circle cx="30.5" cy="30.5" r="2.5" fill="#FFA870"/>
<circle cx="44.5" cy="30.5" r="2.5" fill="#FFA870"/>
<circle cx="58.5" cy="30.5" r="2.5" fill="#FFA870"/>
<circle cx="2.5" cy="44.5" r="2.5" fill="#FFA870"/>
<circle cx="16.5" cy="44.5" r="2.5" fill="#FFA870"/>
<circle cx="30.5" cy="44.5" r="2.5" fill="#FFA870"/>
<circle cx="44.5" cy="44.5" r="2.5" fill="#FFA870"/>
<circle cx="58.5" cy="44.5" r="2.5" fill="#FFA870"/>
</g>
</svg>
