<svg width="89" height="45" viewBox="0 0 89 45" fill="none" xmlns="http://www.w3.org/2000/svg">
<g opacity="0.5">
<path d="M78.0467 32.2C82.4264 32.2 84.6609 35 86.9849 38L88.415 37.4C85.9123 34.2 83.3202 31 78.0467 31C72.7732 31 70.1812 34.3 67.5891 37.4C65.2652 40.4 63.0307 43.2 58.651 43.2C54.2713 43.2 52.0367 40.4 49.7128 37.4C47.2995 34.2 44.7075 31 39.434 31C34.1605 31 31.6578 34.3 29.2445 37.4C26.9206 40.4 24.6861 43.2 20.3064 43.2C15.9267 43.2 13.6922 40.4 11.3682 37.4C8.86556 34.2 6.2735 31 1 31V32.2C5.37969 32.2 7.61422 35 9.93814 38C12.4408 41.2 15.0329 44.4 20.3064 44.4C25.4905 44.4 28.0825 41.1 30.5852 38C32.9091 35 35.1437 32.2 39.5234 32.2C43.903 32.2 46.1376 35 48.4615 38C50.8748 41.2 53.4669 44.4 58.7404 44.4C63.9437 44.4 66.5365 41.1872 69.0087 38.1238L69.1086 38C71.4325 35 73.667 32.2 78.0467 32.2Z" fill="#FFA870" stroke="#FFA870" stroke-width="0.5"/>
<path d="M78.0467 22.2C82.4264 22.2 84.6609 25 86.9849 28L88.415 27.4C85.9123 24.2 83.3202 21 78.0467 21C72.7732 21 70.1812 24.3 67.5891 27.4C65.2652 30.4 63.0307 33.2 58.651 33.2C54.2713 33.2 52.0367 30.4 49.7128 27.4C47.2995 24.2 44.7075 21 39.434 21C34.1605 21 31.6578 24.3 29.2445 27.4C26.9206 30.4 24.6861 33.2 20.3064 33.2C15.9267 33.2 13.6922 30.4 11.3682 27.4C8.86556 24.2 6.2735 21 1 21V22.2C5.37969 22.2 7.61422 25 9.93814 28C12.4408 31.2 15.0329 34.4 20.3064 34.4C25.4905 34.4 28.0825 31.1 30.5852 28C32.9091 25 35.1437 22.2 39.5234 22.2C43.903 22.2 46.1376 25 48.4615 28C50.8748 31.2 53.4669 34.4 58.7404 34.4C63.9437 34.4 66.5365 31.1872 69.0087 28.1238L69.1086 28C71.4325 25 73.667 22.2 78.0467 22.2Z" fill="#FFA870" stroke="#FFA870" stroke-width="0.5"/>
<path d="M78.0467 12.2C82.4264 12.2 84.6609 15 86.9849 18L88.415 17.4C85.9123 14.2 83.3202 11 78.0467 11C72.7732 11 70.1812 14.3 67.5891 17.4C65.2652 20.4 63.0307 23.2 58.651 23.2C54.2713 23.2 52.0367 20.4 49.7128 17.4C47.2995 14.2 44.7075 11 39.434 11C34.1605 11 31.6578 14.3 29.2445 17.4C26.9206 20.4 24.6861 23.2 20.3064 23.2C15.9267 23.2 13.6922 20.4 11.3682 17.4C8.86556 14.2 6.2735 11 1 11V12.2C5.37969 12.2 7.61422 15 9.93814 18C12.4408 21.2 15.0329 24.4 20.3064 24.4C25.4905 24.4 28.0825 21.1 30.5852 18C32.9091 15 35.1437 12.2 39.5234 12.2C43.903 12.2 46.1376 15 48.4615 18C50.8748 21.2 53.4669 24.4 58.7404 24.4C63.9437 24.4 66.5365 21.1872 69.0087 18.1238L69.1086 18C71.4325 15 73.667 12.2 78.0467 12.2Z" fill="#FFA870" stroke="#FFA870" stroke-width="0.5"/>
<path d="M78.0467 2.2C82.4264 2.2 84.6609 5 86.9849 8L88.415 7.4C85.9123 4.2 83.3202 1 78.0467 1C72.7732 1 70.1812 4.3 67.5891 7.4C65.2652 10.4 63.0307 13.2 58.651 13.2C54.2713 13.2 52.0367 10.4 49.7128 7.4C47.2995 4.2 44.7075 1 39.434 1C34.1605 1 31.6578 4.3 29.2445 7.4C26.9206 10.4 24.6861 13.2 20.3064 13.2C15.9267 13.2 13.6922 10.4 11.3682 7.4C8.86556 4.2 6.2735 1 1 1V2.2C5.37969 2.2 7.61422 5 9.93814 8C12.4408 11.2 15.0329 14.4 20.3064 14.4C25.4905 14.4 28.0825 11.1 30.5852 8C32.9091 5 35.1437 2.2 39.5234 2.2C43.903 2.2 46.1376 5 48.4615 8C50.8748 11.2 53.4669 14.4 58.7404 14.4C63.9437 14.4 66.5365 11.1872 69.0087 8.12376L69.1086 8C71.4325 5 73.667 2.2 78.0467 2.2Z" fill="#FFA870" stroke="#FFA870" stroke-width="0.5"/>
</g>
</svg>
