<svg width="50" height="50" viewBox="0 0 50 50" fill="none" xmlns="http://www.w3.org/2000/svg">
<path d="M9.42141 38.181L9.35058 37.9813H9.13867H7.42188C5.16442 37.9813 3.32734 36.1442 3.32734 33.8867V33.8855V33.8841V33.8824V33.8805V33.8784V33.8761V33.8735V33.8707V33.8676V33.8644V33.8609V33.8572V33.8532V33.8491V33.8447V33.8401V33.8353V33.8302V33.825V33.8195V33.8138V33.8079V33.8018V33.7955V33.7889V33.7822V33.7752V33.768V33.7606V33.753V33.7452V33.7372V33.729V33.7206V33.712V33.7031V33.6941V33.6849V33.6754V33.6658V33.656V33.6459V33.6357V33.6253V33.6146V33.6038V33.5928V33.5816V33.5702V33.5586V33.5469V33.5349V33.5227V33.5104V33.4979V33.4851V33.4722V33.4592V33.4459V33.4324V33.4188V33.405V33.391V33.3768V33.3625V33.3479V33.3332V33.3183V33.3033V33.288V33.2726V33.2571V33.2413V33.2254V33.2093V33.193V33.1766V33.16V33.1432V33.1263V33.1092V33.092V33.0746V33.057V33.0392V33.0213V33.0033V32.985V32.9667V32.9481V32.9294V32.9106V32.8916V32.8724V32.8531V32.8337V32.8141V32.7943V32.7744V32.7543V32.7341V32.7138V32.6933V32.6726V32.6519V32.6309V32.6099V32.5886V32.5673V32.5458V32.5242V32.5024V32.4805V32.4584V32.4363V32.414V32.3915V32.3689V32.3462V32.3234V32.3004V32.2773V32.2541V32.2307V32.2072V32.1836V32.1599V32.136V32.112V32.0879V32.0637V32.0393V32.0149V31.9903V31.9656V31.9408V31.9158V31.8908V31.8656V31.8403V31.8149V31.7894V31.7638V31.738V31.7122V31.6863V31.6602V31.634V31.6078V31.5814V31.5549V31.5283V31.5016V31.4748V31.4479V31.421V31.3939V31.3667V31.3394V31.312V31.2845V31.257V31.2293V31.2015V31.1737V31.1457V31.1177V31.0896V31.0614V31.0331V31.0047V30.9762V30.9476V30.919V30.8903V30.8614V30.8326V30.8036V30.7745V30.7454V30.7162V30.6869V30.6575V30.6281V30.5985V30.5689V30.5393V30.5095V30.4797V30.4498V30.4199V30.3899V30.3598V30.3296V30.2994V30.2691V30.2387V30.2083V30.1778V30.1473V30.1167V30.086V30.0553V30.0245V29.9937V29.9628V29.9318V29.9008V29.8697V29.8386V29.8074V29.7762V29.7449V29.7136V29.6822V29.6508V29.6193V29.5878V29.5562V29.5246V29.493V29.4613V29.4295V29.3978V29.3659V29.3341V29.3022V29.2702V29.2383V29.2062V29.1742V29.1421V29.11V29.0778V29.0457V29.0134V28.9812V28.9489V28.9166V28.8843V28.8519V28.8195V28.7871V28.7547V28.7222V28.6898V28.6573V28.6247V28.5922V28.5596V28.5271V28.4945V28.4618V28.4292V28.3966V28.3639V28.3312V28.2985V28.2658V28.2331V28.2004V28.1677V28.135V28.1022V28.0695V28.0367V28.004V27.9712V27.9384V27.9057V27.8729V27.8401V27.8074V27.7746V27.7418V27.7091V27.6763V27.6435V27.6108V27.5781V27.5453V27.5126V27.4799V27.4472V27.4145V27.3818V27.3491V27.3165V27.2838V27.2512V27.2186V27.186V27.1534V27.1209V27.0883V27.0558V27.0233V26.9908V26.9584V26.9259V26.8935V26.8612V26.8288V26.7965V26.7642V26.7319V26.6997V26.6675V26.6353V26.6031V26.571V26.539V26.5069V26.4749V26.4429V26.411V26.3791V26.3473V26.3154V26.2837V26.2519V26.2202V26.1886V26.157V26.1254V26.0939V26.0625V26.0311V25.9997V25.9684V25.9371V25.9059V25.8747V25.8436V25.8126V25.7816V25.7506V25.7197V25.6889V25.6581V25.6274V25.5967V25.5661V25.5356V25.5051V25.4747V25.4444V25.4141V25.3839V25.3538V25.3237V25.2937V25.2637V25.2339V25.2041V25.1743V25.1447V25.1151V25.0856V25.0562V25.0268V24.9975V24.9683V24.9392V24.9102V24.8812V24.8523V24.8235V24.7948V24.7662V24.7377V24.7092V24.6808V24.6525V24.6243V24.5962V24.5682V24.5403V24.5125V24.4847V24.4571V24.4295V24.4021V24.3747V24.3474V24.3203V24.2932V24.2662V24.2393V24.2126V24.1859V24.1593V24.1329V24.1065V24.0803V24.0541V24.0281V24.0022V23.9763V23.9506V23.925V23.8995V23.8742V23.8489V23.8238V23.7987V23.7738V23.749V23.7243V23.6998V23.6753V23.651V23.6268V23.6027V23.5787V23.5549V23.5312V23.5076V23.4841V23.4608V23.4376V23.4145V23.3916V23.3688V23.3461V23.3235V23.3011V23.2788V23.2567V23.2346V23.2128V23.191V23.1694V23.1479V23.1266V23.1054V23.0844V23.0635V23.0427V23.0221V23.0017V22.9813V22.9612V22.9411V22.9212V22.9015V22.8819V22.8625V22.8432V22.8241V22.8051V22.7863V22.7677V22.7492V22.7308V22.7126V22.6946V22.6767V22.659V22.6415V22.6241V22.6068V22.5898V22.5729V22.5562V22.5396V22.5232V22.507V22.4909V22.475V22.4593V22.4438V22.4284V22.4132V22.3982V22.3833V22.3686V22.3542V22.3398V22.3257V22.3117V22.298V22.2844V22.2709V22.2577V22.2446V22.2318V22.2191V22.2066V22.1943V22.1822V22.1703V22.1585V22.147V22.1356V22.1244V22.1135V22.1027V22.0921V22.0817V22.0715V22.0615V22.0517V22.0421V22.0327V22.0236V22.0146V22.0058V21.9972V21.9888V21.9806V21.9727C3.32734 10.0226 13.05 0.3 25 0.3C36.95 0.3 46.6727 10.0226 46.6727 21.9727V21.9806V21.9888V21.9972V22.0057V22.0145V22.0235V22.0327V22.0421V22.0517V22.0615V22.0715V22.0817V22.092V22.1026V22.1134V22.1244V22.1355V22.1469V22.1584V22.1701V22.1821V22.1942V22.2065V22.219V22.2317V22.2445V22.2576V22.2708V22.2842V22.2978V22.3116V22.3255V22.3397V22.354V22.3685V22.3832V22.398V22.413V22.4282V22.4436V22.4591V22.4749V22.4907V22.5068V22.523V22.5394V22.556V22.5727V22.5896V22.6067V22.6239V22.6413V22.6588V22.6765V22.6944V22.7124V22.7306V22.749V22.7675V22.7861V22.8049V22.8239V22.843V22.8623V22.8817V22.9013V22.921V22.9409V22.961V22.9811V23.0015V23.0219V23.0425V23.0633V23.0842V23.1052V23.1264V23.1478V23.1692V23.1908V23.2126V23.2345V23.2565V23.2786V23.3009V23.3233V23.3459V23.3686V23.3914V23.4143V23.4374V23.4606V23.484V23.5074V23.531V23.5547V23.5786V23.6025V23.6266V23.6508V23.6752V23.6996V23.7242V23.7489V23.7737V23.7986V23.8236V23.8488V23.874V23.8994V23.9249V23.9505V23.9762V24.002V24.028V24.054V24.0802V24.1064V24.1328V24.1592V24.1858V24.2125V24.2393V24.2661V24.2931V24.3202V24.3473V24.3746V24.402V24.4294V24.457V24.4847V24.5124V24.5402V24.5682V24.5962V24.6243V24.6525V24.6808V24.7092V24.7376V24.7662V24.7948V24.8235V24.8523V24.8812V24.9102V24.9392V24.9684V24.9976V25.0268V25.0562V25.0856V25.1152V25.1447V25.1744V25.2041V25.2339V25.2638V25.2937V25.3238V25.3538V25.384V25.4142V25.4445V25.4748V25.5053V25.5357V25.5663V25.5969V25.6275V25.6583V25.689V25.7199V25.7508V25.7817V25.8127V25.8438V25.8749V25.9061V25.9373V25.9686V25.9999V26.0313V26.0627V26.0941V26.1257V26.1572V26.1888V26.2205V26.2522V26.2839V26.3157V26.3475V26.3794V26.4113V26.4432V26.4752V26.5072V26.5393V26.5713V26.6035V26.6356V26.6678V26.7V26.7322V26.7645V26.7968V26.8292V26.8615V26.8939V26.9263V26.9587V26.9912V27.0237V27.0562V27.0887V27.1213V27.1538V27.1864V27.219V27.2516V27.2843V27.3169V27.3496V27.3823V27.4149V27.4476V27.4804V27.5131V27.5458V27.5785V27.6113V27.644V27.6768V27.7096V27.7423V27.7751V27.8079V27.8407V27.8734V27.9062V27.939V27.9717V28.0045V28.0373V28.07V28.1028V28.1355V28.1683V28.201V28.2337V28.2665V28.2992V28.3318V28.3645V28.3972V28.4298V28.4625V28.4951V28.5277V28.5603V28.5929V28.6254V28.6579V28.6904V28.7229V28.7554V28.7878V28.8202V28.8526V28.885V28.9173V28.9496V28.9819V29.0142V29.0464V29.0786V29.1107V29.1429V29.175V29.207V29.239V29.271V29.303V29.3349V29.3667V29.3986V29.4303V29.4621V29.4938V29.5254V29.5571V29.5886V29.6202V29.6516V29.6831V29.7144V29.7458V29.7771V29.8083V29.8395V29.8706V29.9017V29.9327V29.9636V29.9945V30.0254V30.0562V30.0869V30.1176V30.1482V30.1787V30.2092V30.2396V30.27V30.3003V30.3305V30.3607V30.3908V30.4208V30.4508V30.4807V30.5105V30.5402V30.5699V30.5995V30.629V30.6585V30.6878V30.7171V30.7463V30.7755V30.8045V30.8335V30.8624V30.8912V30.92V30.9486V30.9772V31.0056V31.034V31.0623V31.0906V31.1187V31.1467V31.1747V31.2025V31.2303V31.258V31.2855V31.313V31.3404V31.3677V31.3949V31.422V31.4489V31.4758V31.5026V31.5293V31.5559V31.5824V31.6088V31.635V31.6612V31.6873V31.7132V31.7391V31.7648V31.7904V31.8159V31.8413V31.8666V31.8918V31.9168V31.9418V31.9666V31.9913V32.0159V32.0403V32.0647V32.0889V32.113V32.137V32.1609V32.1846V32.2082V32.2317V32.2551V32.2783V32.3014V32.3244V32.3472V32.3699V32.3925V32.4149V32.4373V32.4594V32.4815V32.5034V32.5251V32.5468V32.5683V32.5896V32.6108V32.6319V32.6528V32.6736V32.6942V32.7147V32.7351V32.7553V32.7753V32.7952V32.815V32.8346V32.8541V32.8734V32.8925V32.9115V32.9303V32.949V32.9676V32.9859V33.0042V33.0222V33.0401V33.0578V33.0754V33.0928V33.1101V33.1272V33.1441V33.1608V33.1774V33.1939V33.2101V33.2262V33.2421V33.2579V33.2734V33.2888V33.3041V33.3191V33.334V33.3487V33.3632V33.3776V33.3917V33.4057V33.4195V33.4331V33.4466V33.4599V33.4729V33.4858V33.4985V33.5111V33.5234V33.5355V33.5475V33.5593V33.5708V33.5822V33.5934V33.6044V33.6152V33.6258V33.6363V33.6465V33.6565V33.6663V33.6759V33.6854V33.6946V33.7036V33.7124V33.721V33.7295V33.7377V33.7457V33.7535V33.761V33.7684V33.7756V33.7825V33.7893V33.7958V33.8021V33.8082V33.8141V33.8198V33.8253V33.8305V33.8355V33.8403V33.8449V33.8493V33.8534V33.8573V33.861V33.8645V33.8678V33.8708V33.8736V33.8761V33.8785V33.8806V33.8825V33.8841V33.8855V33.8867C46.6727 36.1442 44.8356 37.9813 42.5781 37.9813H41.1133H40.8133V38.2812V39.7461C40.8133 43.619 37.662 46.7703 33.7891 46.7703H29.1426H28.9307L28.8598 46.97C28.2961 48.5594 26.7783 49.7 25 49.7C22.7425 49.7 20.9055 47.8629 20.9055 45.6055C20.9055 43.348 22.7425 41.5109 25 41.5109C26.7783 41.5109 28.2961 42.6516 28.8598 44.2409L28.9307 44.4406H29.1426H33.7891C35.9049 44.4406 37.6961 43.0342 38.2813 41.1088L38.4447 40.5711L37.907 40.7345C37.5308 40.8489 37.132 40.9109 36.7188 40.9109C34.4613 40.9109 32.6242 39.0739 32.6242 36.8164V24.9023C32.6242 22.6449 34.4613 20.8078 36.7188 20.8078C38.497 20.8078 40.0149 21.9484 40.5786 23.5378L40.6494 23.7375H40.8613H42.5781C43.0566 23.7375 43.5155 23.8207 43.9427 23.9722L44.343 24.1141V23.6895V21.9727C44.343 11.3067 35.666 2.62969 25 2.62969C14.334 2.62969 5.65703 11.3067 5.65703 21.9727V23.6895V24.1141L6.0573 23.9722C6.48445 23.8207 6.94336 23.7375 7.42188 23.7375H9.13867H9.35058L9.42141 23.5378C9.98512 21.9484 11.503 20.8078 13.2812 20.8078C15.5387 20.8078 17.3758 22.6449 17.3758 24.9023V36.8164C17.3758 39.0739 15.5387 40.9109 13.2812 40.9109C11.503 40.9109 9.98512 39.7703 9.42141 38.181ZM9.18672 26.3672V26.0672H8.88672H7.42188C6.44847 26.0672 5.65703 26.8586 5.65703 27.832V33.8867C5.65703 34.8601 6.44847 35.6516 7.42188 35.6516H8.88672H9.18672V35.3516V26.3672ZM40.8133 35.3516V35.6516H41.1133H42.5781C43.5515 35.6516 44.343 34.8601 44.343 33.8867V27.832C44.343 26.8586 43.5515 26.0672 42.5781 26.0672H41.1133H40.8133V26.3672V35.3516ZM13.2812 23.1375C12.3078 23.1375 11.5164 23.9289 11.5164 24.9023V36.8164C11.5164 37.7898 12.3078 38.5812 13.2812 38.5812C14.2547 38.5812 15.0461 37.7898 15.0461 36.8164V24.9023C15.0461 23.9289 14.2547 23.1375 13.2812 23.1375ZM23.2352 45.6055C23.2352 46.5789 24.0266 47.3703 25 47.3703C25.9734 47.3703 26.7648 46.5789 26.7648 45.6055C26.7648 44.6321 25.9734 43.8406 25 43.8406C24.0266 43.8406 23.2352 44.6321 23.2352 45.6055ZM36.7188 38.5812C37.6922 38.5812 38.4836 37.7898 38.4836 36.8164V24.9023C38.4836 23.9289 37.6922 23.1375 36.7188 23.1375C35.7453 23.1375 34.9539 23.9289 34.9539 24.9023V36.8164C34.9539 37.7898 35.7453 38.5812 36.7188 38.5812Z" fill="#15E49E" stroke="black" stroke-width="0.6"/>
</svg>
