<svg width="17" height="21" viewBox="0 0 17 21" fill="none" xmlns="http://www.w3.org/2000/svg">
<g opacity="0.5">
<path d="M16 17.8931V11.082C16 9.85246 14.9969 8.84934 13.7674 8.84934H13.2053V5.70726C13.2053 3.11163 11.0937 1 8.49805 1C5.90242 1 3.79469 3.11553 3.79469 5.70726V6.2498C3.79469 6.62061 4.09524 6.91725 4.46214 6.91725C4.82904 6.91725 5.13349 6.61671 5.13349 6.2498V5.70726C5.13349 3.84934 6.64403 2.3388 8.50195 2.3388C10.3599 2.3388 11.8704 3.84934 11.8704 5.70726V8.84934H3.23263C2.00312 8.84934 1 9.84855 1 11.082V17.8931C1 19.1226 2.00312 20.1257 3.23263 20.1257H13.7713C15.0008 20.1218 16 19.1226 16 17.8931ZM2.3427 17.8931V11.082C2.3427 10.5902 2.74473 10.1881 3.23653 10.1881H13.7713C14.2631 10.1881 14.6651 10.5902 14.6651 11.082V17.8931C14.6651 18.3849 14.2631 18.7869 13.7713 18.7869H3.23263C2.74083 18.783 2.3427 18.3849 2.3427 17.8931Z" fill="white" stroke="white" stroke-width="0.2"/>
<path d="M8.49948 12.9907C8.12867 12.9907 7.82812 13.2913 7.82812 13.6582V15.3873C7.82812 15.7581 8.12867 16.0547 8.49948 16.0547C8.87028 16.0547 9.16692 15.7542 9.16692 15.3873V13.6582C9.16692 13.2913 8.87028 12.9907 8.49948 12.9907Z" fill="white"/>
</g>
</svg>
