<svg width="50" height="50" viewBox="0 0 50 50" fill="none" xmlns="http://www.w3.org/2000/svg">
<g clip-path="url(#clip0_3042_2)">
<path d="M19.319 13.4104L19.2137 13.5316L9.67604 24.4939L9.46497 24.7365L9.23758 24.5091L5.53065 20.8022C4.61932 19.8908 4.61932 18.4086 5.53065 17.4973L8.11531 14.9126C10.5061 12.5219 13.8105 11.2876 17.1843 11.5276L19.319 13.4104ZM19.319 13.4104L19.2767 13.2556M19.319 13.4104L19.2767 13.2556M19.2767 13.2556C19.0561 12.4483 18.3381 11.6096 17.1844 11.5276L19.2767 13.2556ZM48.1367 4.42275L48.1367 4.4228L49.4467 10.9526C50.292 15.1673 48.9823 19.4975 45.9429 22.5371L45.9425 22.5375C45.9368 22.5433 45.931 22.549 45.925 22.5547C45.9118 22.5673 45.8981 22.5798 45.8839 22.5922C45.8838 22.5923 45.8838 22.5923 45.8838 22.5923L38.838 28.7223L38.5526 28.9707L38.8595 29.192C39.9601 29.9858 40.6946 31.2397 40.7947 32.6493L41.094 32.628L40.7947 32.6493C41.0823 36.696 39.602 40.662 36.7333 43.5306L34.1486 46.1153C33.2392 47.0247 32.0445 47.4796 30.849 47.4797C29.6531 47.4798 28.459 47.0249 27.5494 46.1152L27.3372 46.3273L27.5494 46.1152L23.795 42.3608L23.5829 42.1487L23.3707 42.3608L22.1998 43.5317C21.3164 44.4152 20.1435 44.9012 18.8945 44.9013H18.894C18.2572 44.9013 17.6411 44.7744 17.073 44.5341L16.8364 44.434L16.7011 44.6524C15.2658 46.9703 12.4999 49.6996 7.38492 49.7C6.34656 49.7001 5.2101 49.5879 3.96412 49.3356C2.29639 48.9977 1.00107 47.7025 0.663223 46.0347C-0.0900751 42.315 0.408947 39.5562 1.42086 37.5218C2.43468 35.4834 3.9765 34.146 5.34919 33.2954L5.56719 33.1603L5.46765 32.924C4.75113 31.2226 5.08454 29.1814 6.46698 27.799L7.63789 26.6281L7.85002 26.4159L7.63789 26.2038L3.8835 22.4494C3.00175 21.5677 2.5168 20.3968 2.5168 19.1498C2.5168 17.9028 3.00175 16.732 3.8835 15.8502L6.46816 13.2656L6.25602 13.0534L6.46816 13.2656C9.33669 10.3969 13.3036 8.91681 17.3493 9.20408C18.7706 9.30497 20.02 10.0308 20.8103 11.1339L21.0313 11.4424L21.2805 11.1561L27.4064 4.11506C27.4242 4.0947 27.4426 4.07496 27.4616 4.05594L27.2512 3.84556L27.4616 4.05594C30.501 1.01633 34.8309 -0.293328 39.0461 0.552005L45.576 1.86186L45.635 1.56772L45.576 1.86186C46.8721 2.12184 47.8769 3.12668 48.1367 4.42275ZM11.8598 46.266L11.7101 46.006L11.8598 46.2659C13.0994 45.5519 14.1154 44.5006 14.8896 43.1456L15.0032 42.9466L14.8412 42.7846L7.21527 35.1581L7.05321 34.996L6.85423 35.1098C5.46461 35.9043 4.39378 36.9513 3.6802 38.2314C2.58963 40.1881 2.35798 42.6676 2.94622 45.5722L2.94623 45.5723C3.0977 46.3196 3.67907 46.901 4.42649 47.0524C7.37716 47.6501 9.8885 47.4014 11.8598 46.266ZM8.11354 32.7621L8.32568 32.55L8.11355 32.7621L17.2358 41.8849C17.2358 41.8849 17.2359 41.885 17.2359 41.885C17.6783 42.3275 18.2683 42.5718 18.894 42.5718C19.5199 42.5718 20.1099 42.3273 20.5526 41.8846L21.7195 40.7177L21.9316 40.5055L21.7195 40.2934L9.7051 28.2792L9.49297 28.0671L9.28084 28.2792L8.11394 29.4461C7.19953 30.3605 7.19925 31.8477 8.11354 32.7621ZM35.0861 41.8834L34.8739 41.6713L35.0861 41.8834C37.4768 39.4926 38.7106 36.187 38.4711 32.8144L38.1718 32.8356L38.4711 32.8144C38.3887 31.6551 37.5619 30.9446 36.744 30.7212L36.5891 30.6789L36.468 30.7843L25.5047 40.3227L25.2621 40.5337L25.4895 40.7611L29.1964 44.4681C29.6373 44.909 30.2253 45.1525 30.8489 45.1525C31.4725 45.1525 32.0603 44.909 32.5013 44.4681L32.5013 44.4681L35.0861 41.8834ZM44.3151 20.8693L44.3235 20.862L44.3314 20.8541C46.7925 18.3691 47.851 14.8424 47.1626 11.4108L45.8527 4.8809C45.7782 4.50914 45.4893 4.2204 45.1178 4.14582L45.1178 4.14581L38.5878 2.83596C35.1564 2.14751 31.6295 3.20615 29.1445 5.66742L29.1366 5.67525L29.1293 5.68365L11.2961 26.1808L11.1124 26.392L11.3103 26.5899L23.4088 38.6884L23.6067 38.8863L23.8179 38.7026L44.3151 20.8693Z" fill="#15E49E" stroke="black" stroke-width="0.6"/>
<path d="M28.7861 12.3067L28.7861 12.3067C29.9759 11.1167 31.5565 10.462 33.2394 10.462C34.9222 10.462 36.5028 11.1167 37.6927 12.3067L37.6927 12.3067C40.1481 14.7621 40.1481 18.7579 37.6927 21.2133L37.6927 21.2133C36.5029 22.4032 34.9223 23.058 33.2394 23.058C31.5565 23.058 29.976 22.4032 28.7861 21.2133C26.3307 18.7579 26.3307 14.7621 28.7861 12.3067ZM30.4332 13.9538L30.4332 13.9538C28.8858 15.5013 28.8858 18.0186 30.4332 19.5661C31.1823 20.3153 32.1799 20.7285 33.2394 20.7285C34.2989 20.7285 35.2964 20.3153 36.0456 19.5662C37.5931 18.0187 37.5931 15.5014 36.0456 13.9538C35.2965 13.2047 34.2989 12.7914 33.2394 12.7914C32.1799 12.7914 31.1824 13.2047 30.4332 13.9538Z" fill="#15E49E" stroke="black" stroke-width="0.6"/>
</g>
<defs>
<clipPath id="clip0_3042_2">
<rect width="50" height="50" fill="white"/>
</clipPath>
</defs>
</svg>
