<svg width="51" height="55" viewBox="0 0 51 55" fill="none" xmlns="http://www.w3.org/2000/svg">
<path d="M33.6504 41.4352L33.5546 41.172L26.4825 21.7415L26.4167 21.5607L26.5168 21.3965C27.3228 20.0747 27.7875 18.5237 27.7875 16.8652C27.7875 13.7489 26.145 11.009 23.6782 9.46314L23.4906 9.34558V9.1242V4.83398C23.4906 2.38944 21.5012 0.4 19.0566 0.4C16.6121 0.4 14.6227 2.38944 14.6227 4.83398V9.1242V9.34557L14.4351 9.46313C11.9683 11.0091 10.3258 13.7489 10.3258 16.8652C10.3258 18.5237 10.7905 20.0748 11.5964 21.3964L11.6966 21.5607L11.6308 21.7415L4.55878 41.172L4.46299 41.4352H4.1829H1.86914C1.20017 41.4352 0.657813 41.9775 0.657813 42.6465C0.657813 43.3155 1.20017 43.8578 1.86914 43.8578H3.00996H3.58117L3.38585 44.3946L3.26983 44.7134L3.26982 44.7135C1.82601 48.6802 3.87898 53.0829 7.8459 54.527C7.97993 54.5758 8.1201 54.6 8.26021 54.6C8.4353 54.6 8.61019 54.562 8.77203 54.4866L33.6504 41.4352ZM33.6504 41.4352H33.9305M33.6504 41.4352H33.9305M33.9305 41.4352H36.2441C36.9131 41.4352 37.4555 41.9775 37.4555 42.6465C37.4555 43.3155 36.9131 43.8578 36.2441 43.8578H35.1035H34.5323L34.7276 44.3946L34.8437 44.7134L34.8437 44.7135C36.2876 48.6801 34.2346 53.0828 30.2678 54.5269C30.1335 54.5757 29.9931 54.6 29.8532 54.6C29.6778 54.6 29.5031 54.562 29.3414 54.4866L29.3413 54.4866C29.0501 54.3507 28.8248 54.1048 28.7148 53.8029C28.7148 53.8029 28.7148 53.8029 28.7148 53.8029L25.1909 44.121L25.0951 43.8578H24.815H20.668H20.268V44.2578V45.8691C20.268 46.5381 19.7256 47.0805 19.0566 47.0805C18.3877 47.0805 17.8453 46.5381 17.8453 45.8691V44.2578V43.8578H17.4453H13.2983H13.0182L12.9224 44.121L9.39844 53.8029L9.39842 53.803M33.9305 41.4352L9.39842 53.803M9.39842 53.803C9.28865 54.1047 9.06332 54.3506 8.77217 54.4865L9.39842 53.803ZM30.5009 41.4352H31.0722L30.8768 40.8983L24.773 24.1279L24.5918 23.63L24.1626 23.9406C23.3298 24.5434 22.3877 25.0023 21.3719 25.2821L20.954 25.3972L21.1023 25.8045L26.6956 41.172L26.7914 41.4352H27.0715H30.5009ZM20.5976 8.27337L21.068 8.35744V7.87961V4.83398C21.068 3.72458 20.166 2.82266 19.0566 2.82266C17.9472 2.82266 17.0453 3.72458 17.0453 4.83398V7.87961V8.35744L17.5157 8.27337C18.0175 8.18368 18.5318 8.13437 19.0566 8.13437C19.5815 8.13437 20.0958 8.18368 20.5976 8.27337ZM13.9508 23.9406L13.5216 23.63L13.3404 24.1279L7.23636 40.8983L7.04097 41.4352H7.61224H11.0418H11.3219L11.4177 41.172L17.0111 25.8045L17.1594 25.3972L16.7415 25.2821C15.7257 25.0023 14.7836 24.5434 13.9508 23.9406ZM7.13705 51.3724L7.57381 51.7327L7.76747 51.2007L10.2447 44.3946L10.4401 43.8578H9.86885H6.4393H6.15921L6.06342 44.121L5.54629 45.5419C4.76787 47.6805 5.47565 50.0019 7.13705 51.3724ZM20.268 41.0352V41.4352H20.668H23.6421H24.2133L24.0179 40.8983L19.4325 28.3001L19.0566 27.2674L18.6808 28.3001L14.0954 40.8983L13.9 41.4352H14.4712H17.4453H17.8453V41.0352V39.4238C17.8453 38.7549 18.3877 38.2125 19.0566 38.2125C19.7256 38.2125 20.268 38.7549 20.268 39.4238V41.0352ZM30.3458 51.2008L30.5395 51.7328L30.9762 51.3725C32.6376 50.002 33.3454 47.6806 32.567 45.5421L32.0498 44.121L31.954 43.8578H31.6739H28.2444H27.6732L27.8686 44.3946L30.3458 51.2008ZM25.3648 16.8652C25.3648 13.3865 22.5353 10.557 19.0566 10.557C15.5779 10.557 12.7484 13.3865 12.7484 16.8652C12.7484 20.3439 15.5779 23.1734 19.0566 23.1734C22.5353 23.1734 25.3648 20.3439 25.3648 16.8652Z" fill="#15E49E" stroke="black" stroke-width="0.8"/>
<path d="M20.268 16.8652C20.268 17.5342 19.7256 18.0766 19.0566 18.0766C18.3876 18.0766 17.8453 17.5342 17.8453 16.8652C17.8453 16.1962 18.3876 15.6539 19.0566 15.6539C19.7256 15.6539 20.268 16.1962 20.268 16.8652Z" fill="#15E49E" stroke="black" stroke-width="0.8"/>
<path d="M44.9975 48.6432L45.375 49.7219L45.7525 48.6432L47.2412 44.39L47.4274 43.8578H46.8637H43.8863H43.3226L43.5088 44.39L44.9975 48.6432ZM47.5234 41.4352H47.9234V41.0352V16.3281V15.9281H47.5234H43.2266H42.8266V16.3281V41.0352V41.4352H43.2266H47.5234ZM47.5234 13.5055H47.9234V13.1055V9.88281V9.48281H47.5234H43.2266H42.8266V9.88281V13.1055V13.5055H43.2266H47.5234ZM47.5234 7.06016H47.9234V6.66016V5.37109C47.9234 3.96553 46.7806 2.82266 45.375 2.82266C43.9694 2.82266 42.8266 3.96553 42.8266 5.37109V6.66016V7.06016H43.2266H47.5234ZM40.4039 5.37109C40.4039 2.63039 42.6343 0.4 45.375 0.4C48.1157 0.4 50.3461 2.63039 50.3461 5.37109V42.6465C50.3461 42.7826 50.3231 42.9179 50.2781 43.0466C50.2781 43.0467 50.2781 43.0467 50.2781 43.0467L46.5183 53.7888C46.3483 54.2747 45.8897 54.6 45.375 54.6C44.8603 54.6 44.4017 54.2747 44.2317 53.7888L40.4719 43.0467C40.4719 43.0467 40.4719 43.0467 40.4719 43.0466C40.4269 42.9179 40.4039 42.7827 40.4039 42.6465V5.37109Z" fill="#15E49E" stroke="black" stroke-width="0.8"/>
</svg>
