<svg width="49" height="55" viewBox="0 0 49 55" fill="none" xmlns="http://www.w3.org/2000/svg">
<path d="M7.42758 41.9757L7.33313 41.7094H7.05059H5.16211C2.71756 41.7094 0.728125 39.7199 0.728125 37.2754V37.2741V37.2725V37.2707V37.2686V37.2662V37.2637V37.2608V37.2577V37.2544V37.2508V37.247V37.2429V37.2386V37.234V37.2292V37.2241V37.2188V37.2133V37.2075V37.2015V37.1952V37.1887V37.182V37.175V37.1678V37.1604V37.1527V37.1448V37.1367V37.1283V37.1198V37.1109V37.1019V37.0926V37.0831V37.0734V37.0635V37.0533V37.043V37.0324V37.0216V37.0105V36.9993V36.9878V36.9761V36.9642V36.9521V36.9398V36.9272V36.9145V36.9015V36.8884V36.875V36.8614V36.8476V36.8337V36.8195V36.8051V36.7905V36.7757V36.7607V36.7455V36.7301V36.7145V36.6987V36.6827V36.6665V36.6502V36.6336V36.6168V36.5999V36.5828V36.5654V36.5479V36.5302V36.5123V36.4943V36.476V36.4576V36.439V36.4202V36.4012V36.382V36.3627V36.3432V36.3235V36.3036V36.2836V36.2633V36.2429V36.2224V36.2017V36.1808V36.1597V36.1384V36.117V36.0955V36.0737V36.0518V36.0298V36.0075V35.9852V35.9626V35.9399V35.917V35.894V35.8708V35.8475V35.824V35.8004V35.7766V35.7526V35.7285V35.7043V35.6799V35.6553V35.6307V35.6058V35.5808V35.5557V35.5304V35.505V35.4795V35.4538V35.4279V35.402V35.3759V35.3496V35.3232V35.2967V35.2701V35.2433V35.2164V35.1893V35.1621V35.1348V35.1074V35.0798V35.0521V35.0243V34.9964V34.9683V34.9402V34.9118V34.8834V34.8549V34.8262V34.7974V34.7685V34.7395V34.7104V34.6811V34.6518V34.6223V34.5927V34.5631V34.5333V34.5033V34.4733V34.4432V34.413V34.3827V34.3522V34.3217V34.291V34.2603V34.2295V34.1985V34.1675V34.1364V34.1051V34.0738V34.0424V34.0109V33.9793V33.9476V33.9158V33.8839V33.852V33.8199V33.7878V33.7556V33.7233V33.6909V33.6584V33.6258V33.5932V33.5605V33.5277V33.4948V33.4619V33.4289V33.3958V33.3626V33.3293V33.296V33.2626V33.2292V33.1956V33.162V33.1284V33.0946V33.0608V33.027V32.993V32.959V32.925V32.8909V32.8567V32.8225V32.7882V32.7538V32.7194V32.685V32.6505V32.6159V32.5813V32.5466V32.5119V32.4771V32.4423V32.4074V32.3725V32.3375V32.3025V32.2675V32.2324V32.1973V32.1621V32.1269V32.0916V32.0563V32.021V31.9856V31.9502V31.9148V31.8793V31.8438V31.8083V31.7727V31.7371V31.7015V31.6659V31.6302V31.5945V31.5587V31.523V31.4872V31.4514V31.4156V31.3798V31.3439V31.308V31.2721V31.2362V31.2003V31.1644V31.1284V31.0924V31.0565V31.0205V30.9845V30.9485V30.9124V30.8764V30.8404V30.8044V30.7683V30.7323V30.6962V30.6602V30.6241V30.5881V30.552V30.516V30.48V30.4439V30.4079V30.3719V30.3359V30.2999V30.2639V30.2279V30.1919V30.1559V30.12V30.084V30.0481V30.0122V29.9763V29.9404V29.9046V29.8688V29.8329V29.7971V29.7614V29.7256V29.6899V29.6542V29.6185V29.5829V29.5473V29.5117V29.4761V29.4406V29.4051V29.3696V29.3342V29.2988V29.2635V29.2281V29.1929V29.1576V29.1224V29.0872V29.0521V29.017V28.982V28.947V28.912V28.8771V28.8423V28.8075V28.7727V28.738V28.7033V28.6687V28.6342V28.5997V28.5652V28.5308V28.4965V28.4622V28.428V28.3938V28.3597V28.3257V28.2917V28.2578V28.2239V28.1901V28.1564V28.1228V28.0892V28.0557V28.0222V27.9888V27.9555V27.9223V27.8891V27.8561V27.823V27.7901V27.7572V27.7245V27.6918V27.6592V27.6266V27.5942V27.5618V27.5295V27.4973V27.4652V27.4331V27.4012V27.3693V27.3376V27.3059V27.2743V27.2428V27.2114V27.1801V27.1489V27.1178V27.0868V27.0559V27.025V26.9943V26.9637V26.9332V26.9028V26.8725V26.8423V26.8122V26.7822V26.7523V26.7225V26.6928V26.6633V26.6338V26.6045V26.5753V26.5462V26.5172V26.4883V26.4595V26.4309V26.4024V26.374V26.3457V26.3175V26.2895V26.2616V26.2338V26.2061V26.1786V26.1512V26.1239V26.0968V26.0697V26.0428V26.0161V25.9895V25.963V25.9366V25.9104V25.8843V25.8584V25.8326V25.8069V25.7814V25.756V25.7307V25.7056V25.6807V25.6559V25.6312V25.6067V25.5823V25.5581V25.534V25.5101V25.4864V25.4627V25.4393V25.416V25.3928V25.3698V25.347V25.3243V25.3018V25.2795V25.2573V25.2352V25.2134V25.1917V25.1701V25.1488V25.1276V25.1065V25.0856V25.0649V25.0444V25.0241V25.0039V24.9839V24.964V24.9444V24.9249V24.9056V24.8865V24.8675V24.8488V24.8302V24.8118V24.7936V24.7755V24.7577V24.74V24.7225V24.7052V24.6881V24.6712V24.6545V24.638V24.6217V24.6055V24.5896V24.5738V24.5583V24.5429V24.5277V24.5128V24.498V24.4835V24.4691V24.455V24.441V24.4273V24.4137V24.4004V24.3873V24.3744V24.3617V24.3492V24.3369V24.3248V24.313V24.3013V24.2899V24.2787V24.2677V24.2569V24.2464V24.236V24.2259V24.216V24.2063V24.1969V24.1877V24.1787V24.1699C0.728125 11.0635 11.3917 0.4 24.498 0.4C37.6044 0.4 48.268 11.0635 48.268 24.1699V24.1787V24.1877V24.1969V24.2063V24.216V24.2259V24.236V24.2463V24.2569V24.2676V24.2786V24.2898V24.3012V24.3129V24.3247V24.3368V24.3491V24.3616V24.3743V24.3872V24.4003V24.4136V24.4271V24.4409V24.4548V24.469V24.4833V24.4979V24.5126V24.5276V24.5427V24.5581V24.5737V24.5894V24.6053V24.6215V24.6378V24.6543V24.6711V24.688V24.7051V24.7223V24.7398V24.7575V24.7753V24.7934V24.8116V24.83V24.8486V24.8673V24.8863V24.9054V24.9247V24.9442V24.9638V24.9837V25.0037V25.0239V25.0442V25.0647V25.0854V25.1063V25.1273V25.1485V25.1699V25.1915V25.2132V25.235V25.2571V25.2792V25.3016V25.3241V25.3468V25.3696V25.3926V25.4158V25.4391V25.4625V25.4861V25.5099V25.5338V25.5579V25.5821V25.6065V25.631V25.6557V25.6805V25.7054V25.7305V25.7558V25.7812V25.8067V25.8324V25.8582V25.8841V25.9102V25.9364V25.9628V25.9893V26.0159V26.0427V26.0696V26.0966V26.1237V26.151V26.1784V26.206V26.2336V26.2614V26.2894V26.3174V26.3456V26.3738V26.4022V26.4308V26.4594V26.4882V26.5171V26.5461V26.5752V26.6044V26.6337V26.6632V26.6927V26.7224V26.7522V26.7821V26.8121V26.8422V26.8724V26.9027V26.9331V26.9636V26.9943V27.025V27.0558V27.0867V27.1178V27.1489V27.1801V27.2114V27.2428V27.2743V27.3059V27.3376V27.3693V27.4012V27.4332V27.4652V27.4973V27.5295V27.5618V27.5942V27.6267V27.6592V27.6918V27.7245V27.7573V27.7902V27.8231V27.8561V27.8892V27.9224V27.9556V27.9889V28.0223V28.0558V28.0893V28.1229V28.1566V28.1903V28.2241V28.2579V28.2919V28.3258V28.3599V28.394V28.4282V28.4624V28.4967V28.531V28.5654V28.5999V28.6344V28.6689V28.7036V28.7382V28.7729V28.8077V28.8425V28.8774V28.9123V28.9473V28.9823V29.0173V29.0524V29.0875V29.1227V29.1579V29.1932V29.2285V29.2638V29.2992V29.3346V29.37V29.4055V29.441V29.4765V29.5121V29.5477V29.5833V29.6189V29.6546V29.6903V29.7261V29.7618V29.7976V29.8334V29.8692V29.905V29.9409V29.9768V30.0127V30.0486V30.0845V30.1205V30.1564V30.1924V30.2284V30.2644V30.3004V30.3364V30.3724V30.4085V30.4445V30.4805V30.5166V30.5526V30.5887V30.6247V30.6608V30.6968V30.7329V30.7689V30.805V30.841V30.877V30.9131V30.9491V30.9851V31.0211V31.0571V31.0931V31.1291V31.165V31.201V31.2369V31.2728V31.3087V31.3446V31.3805V31.4163V31.4521V31.4879V31.5237V31.5595V31.5952V31.6309V31.6666V31.7023V31.7379V31.7735V31.8091V31.8446V31.8801V31.9156V31.951V31.9864V32.0218V32.0572V32.0924V32.1277V32.1629V32.1981V32.2332V32.2683V32.3034V32.3384V32.3734V32.4083V32.4432V32.478V32.5128V32.5475V32.5822V32.6168V32.6514V32.6859V32.7203V32.7548V32.7891V32.8234V32.8576V32.8918V32.9259V32.96V32.994V33.0279V33.0618V33.0956V33.1293V33.163V33.1966V33.2301V33.2636V33.297V33.3303V33.3636V33.3968V33.4299V33.4629V33.4958V33.5287V33.5615V33.5942V33.6269V33.6594V33.6919V33.7243V33.7566V33.7888V33.821V33.853V33.885V33.9169V33.9487V33.9803V34.012V34.0435V34.0749V34.1062V34.1374V34.1686V34.1996V34.2306V34.2614V34.2921V34.3228V34.3533V34.3837V34.4141V34.4443V34.4744V34.5044V34.5344V34.5642V34.5938V34.6234V34.6529V34.6823V34.7115V34.7406V34.7696V34.7985V34.8273V34.856V34.8845V34.913V34.9413V34.9694V34.9975V35.0254V35.0533V35.0809V35.1085V35.1359V35.1632V35.1904V35.2175V35.2444V35.2712V35.2978V35.3243V35.3507V35.377V35.4031V35.429V35.4549V35.4806V35.5061V35.5315V35.5568V35.5819V35.6069V35.6317V35.6564V35.681V35.7054V35.7296V35.7537V35.7777V35.8014V35.8251V35.8486V35.8719V35.8951V35.9181V35.941V35.9637V35.9862V36.0086V36.0308V36.0529V36.0748V36.0965V36.1181V36.1395V36.1607V36.1818V36.2027V36.2234V36.2439V36.2643V36.2845V36.3046V36.3244V36.3441V36.3636V36.383V36.4021V36.4211V36.4399V36.4585V36.4769V36.4952V36.5132V36.5311V36.5488V36.5663V36.5836V36.6008V36.6177V36.6345V36.651V36.6674V36.6835V36.6995V36.7153V36.7309V36.7463V36.7615V36.7765V36.7912V36.8058V36.8202V36.8344V36.8484V36.8622V36.8757V36.8891V36.9022V36.9152V36.9279V36.9404V36.9528V36.9649V36.9767V36.9884V36.9999V37.0111V37.0221V37.0329V37.0435V37.0539V37.064V37.074V37.0837V37.0931V37.1024V37.1114V37.1202V37.1288V37.1371V37.1453V37.1531V37.1608V37.1682V37.1754V37.1823V37.1891V37.1955V37.2018V37.2078V37.2136V37.2191V37.2244V37.2294V37.2342V37.2388V37.2431V37.2471V37.251V37.2545V37.2579V37.2609V37.2638V37.2663V37.2687V37.2707V37.2725V37.2741V37.2754C48.268 39.7199 46.2785 41.7094 43.834 41.7094H42.2227H41.8227V42.1094V43.7207C41.8227 47.9422 38.3875 51.3773 34.166 51.3773H29.0549H28.7723L28.6779 51.6436C28.0674 53.3649 26.4235 54.6 24.498 54.6C22.0535 54.6 20.0641 52.6106 20.0641 50.166C20.0641 47.7215 22.0535 45.732 24.498 45.732C26.4235 45.732 28.0674 46.9671 28.6779 48.6884L28.7723 48.9547H29.0549H34.166C36.5252 48.9547 38.522 47.3866 39.1744 45.2401L39.3923 44.5231L38.6754 44.741C38.268 44.8648 37.8362 44.932 37.3887 44.932C34.9441 44.932 32.9547 42.9426 32.9547 40.498V27.3926C32.9547 24.948 34.9441 22.9586 37.3887 22.9586C39.3141 22.9586 40.958 24.1936 41.5685 25.915L41.663 26.1812H41.9455H43.834C44.3522 26.1812 44.8491 26.2714 45.3116 26.4354L45.8453 26.6247V26.0584V24.1699C45.8453 12.3987 36.2693 2.82266 24.498 2.82266C12.7268 2.82266 3.15078 12.3987 3.15078 24.1699V26.0584V26.6247L3.68448 26.4354C4.14703 26.2714 4.64392 26.1812 5.16211 26.1812H7.05059H7.33313L7.42758 25.915C8.03809 24.1936 9.68198 22.9586 11.6074 22.9586C14.052 22.9586 16.0414 24.948 16.0414 27.3926V40.498C16.0414 42.9426 14.052 44.932 11.6074 44.932C9.68199 44.932 8.03809 43.697 7.42758 41.9757ZM7.17344 29.0039V28.6039H6.77344H5.16211C4.05271 28.6039 3.15078 29.5058 3.15078 30.6152V37.2754C3.15078 38.3848 4.05271 39.2867 5.16211 39.2867H6.77344H7.17344V38.8867V29.0039ZM41.8227 38.8867V39.2867H42.2227H43.834C44.9434 39.2867 45.8453 38.3848 45.8453 37.2754V30.6152C45.8453 29.5058 44.9434 28.6039 43.834 28.6039H42.2227H41.8227V29.0039V38.8867ZM11.6074 25.3813C10.498 25.3813 9.59609 26.2832 9.59609 27.3926V40.498C9.59609 41.6074 10.498 42.5094 11.6074 42.5094C12.7168 42.5094 13.6187 41.6074 13.6187 40.498V27.3926C13.6187 26.2832 12.7168 25.3813 11.6074 25.3813ZM22.4867 50.166C22.4867 51.2754 23.3886 52.1773 24.498 52.1773C25.6074 52.1773 26.5094 51.2754 26.5094 50.166C26.5094 49.0566 25.6074 48.1547 24.498 48.1547C23.3886 48.1547 22.4867 49.0566 22.4867 50.166ZM37.3887 42.5094C38.4981 42.5094 39.4 41.6074 39.4 40.498V27.3926C39.4 26.2832 38.4981 25.3813 37.3887 25.3813C36.2793 25.3813 35.3773 26.2832 35.3773 27.3926V40.498C35.3773 41.6074 36.2793 42.5094 37.3887 42.5094Z" fill="#15E49E" stroke="black" stroke-width="0.8"/>
</svg>
