<svg width="55" height="55" viewBox="0 0 55 55" fill="none" xmlns="http://www.w3.org/2000/svg">
<path d="M45.332 3.62266H45.732V3.22266V1.61133C45.732 0.942359 46.2744 0.4 46.9434 0.4H53.3887C54.0576 0.4 54.6 0.942359 54.6 1.61133V8.05664C54.6 8.72561 54.0576 9.26797 53.3887 9.26797H46.9434C46.2744 9.26797 45.732 8.72561 45.732 8.05664V6.44531V6.04531H45.332H38.6314H37.2522L38.4174 6.78324C44.109 10.388 47.5864 16.4631 48.0043 22.954L48.0214 23.22L48.2734 23.3066C50.0156 23.9057 51.2699 25.5597 51.2699 27.5C51.2699 29.9445 49.2805 31.934 46.8359 31.934C44.3914 31.934 42.402 29.9445 42.402 27.5C42.402 25.5917 43.6147 23.9592 45.312 23.3359L45.5957 23.2318L45.573 22.9304C44.9881 15.1718 39.4041 8.49015 31.9279 6.59289L31.6152 6.51353L31.4715 6.80232C30.7441 8.26333 29.2366 9.26797 27.5 9.26797C25.7634 9.26797 24.2559 8.26334 23.5285 6.80222L23.3848 6.51342L23.0721 6.59278C15.596 8.49004 10.0119 15.1717 9.42701 22.9303L9.40429 23.2316L9.68799 23.3358C11.3853 23.9591 12.598 25.5917 12.598 27.5C12.598 29.9445 10.6086 31.934 8.16406 31.934C5.71952 31.934 3.73008 29.9445 3.73008 27.5C3.73008 25.5597 4.98442 23.9057 6.72663 23.3066L6.97862 23.22L6.99574 22.954C7.4128 16.4755 10.8803 10.3733 16.5826 6.76175L17.7478 6.02383H16.3686H9.66797H9.26797V6.42383V8.05664C9.26797 8.72561 8.72561 9.26797 8.05664 9.26797H1.61133C0.942359 9.26797 0.4 8.72561 0.4 8.05664V1.61133C0.4 0.942359 0.942359 0.4 1.61133 0.4H8.05664C8.72561 0.4 9.26797 0.942359 9.26797 1.61133V3.22266V3.62266H9.66797H22.9432H23.2257L23.3202 3.35637C23.9307 1.63505 25.5746 0.4 27.5 0.4C29.4254 0.4 31.0693 1.63505 31.6798 3.35637L31.7743 3.62266H32.0568H45.332ZM6.44531 6.84531H6.84531V6.44531V3.22266V2.82266H6.44531H3.22266H2.82266V3.22266V6.44531V6.84531H3.22266H6.44531ZM51.7773 6.84531H52.1773V6.44531V3.22266V2.82266H51.7773H48.5547H48.1547V3.22266V6.44531V6.84531H48.5547H51.7773ZM6.15273 27.5C6.15273 28.6094 7.05466 29.5113 8.16406 29.5113C9.27346 29.5113 10.1754 28.6094 10.1754 27.5C10.1754 26.3906 9.27346 25.4887 8.16406 25.4887C7.05466 25.4887 6.15273 26.3906 6.15273 27.5ZM25.4887 4.83398C25.4887 5.94338 26.3906 6.84531 27.5 6.84531C28.6094 6.84531 29.5113 5.94338 29.5113 4.83398C29.5113 3.72458 28.6094 2.82266 27.5 2.82266C26.3906 2.82266 25.4887 3.72458 25.4887 4.83398ZM48.8473 27.5C48.8473 26.3906 47.9453 25.4887 46.8359 25.4887C45.7265 25.4887 44.8246 26.3906 44.8246 27.5C44.8246 28.6094 45.7265 29.5113 46.8359 29.5113C47.9453 29.5113 48.8473 28.6094 48.8473 27.5Z" fill="black" stroke="#15E49E" stroke-width="0.8"/>
<path d="M41.4004 33.2734L41.4004 33.2733L28.5123 13.9413C28.5117 13.9404 28.511 13.9395 28.5104 13.9385L28.5062 13.9328L28.4988 13.9224L28.4974 13.9203L28.4974 13.9203C28.4816 13.8975 28.4644 13.8745 28.4454 13.8508C27.9353 13.2171 26.9633 13.2592 26.5062 13.9208L26.505 13.9224L26.4976 13.9328L26.4934 13.9386L41.4004 33.2734ZM41.4004 33.2734C41.7207 33.7537 41.6574 34.3935 41.249 34.8019L41.2489 34.8019C37.971 38.0795 35.8848 42.3641 35.3165 46.9486L35.2892 47.1692L35.4621 47.3089C35.7016 47.5025 35.9313 47.7087 36.1483 47.9306C37.5892 49.4047 38.3812 51.3422 38.3812 53.3887C38.3812 54.0576 37.8389 54.6 37.1699 54.6H17.834C17.165 54.6 16.6226 54.0576 16.6226 53.3887C16.6226 51.3422 17.4147 49.4047 18.8556 47.9308L18.8557 47.9307C19.0725 47.7088 19.3023 47.5027 19.5419 47.309L19.7147 47.1693L19.6874 46.9487C19.119 42.3645 17.0328 38.0798 13.7548 34.8019C13.3465 34.3936 13.2832 33.7538 13.6035 33.2735L13.6035 33.2734L26.4919 13.9408L41.4004 33.2734ZM28.5096 13.9373L28.5097 13.9375L28.5096 13.9373ZM19.3425 51.6452L19.1563 52.1773H19.7201H35.2838H35.8476L35.6613 51.6452C34.9397 49.5833 32.9805 48.0473 30.7246 48.0473H24.2793C22.0233 48.0473 20.0641 49.5833 19.3425 51.6452ZM32.5856 45.8574L33.0046 45.9644L33.0786 45.5383C33.8198 41.2687 35.7453 37.2775 38.6387 34.0383L38.8449 33.8075L38.6732 33.5499L29.4461 19.7094L28.7133 18.6102V19.9313V29.3886V29.6711L28.9796 29.7656C30.701 30.3761 31.9359 32.02 31.9359 33.9454C31.9359 36.39 29.9465 38.3794 27.5019 38.3794C25.0574 38.3794 23.068 36.39 23.068 33.9454C23.068 32.02 24.3029 30.3761 26.0243 29.7656L26.2906 29.6711V29.3886V19.9313V18.6101L25.5578 19.7094L16.3308 33.5499L16.1591 33.8074L16.3653 34.0383C19.2586 37.2778 21.1839 41.2689 21.9253 45.5384L21.9993 45.9646L22.4184 45.8575C23.0198 45.7039 23.6435 45.6246 24.2793 45.6246H30.7246C31.3604 45.6246 31.9841 45.7039 32.5856 45.8574ZM29.5133 33.9453C29.5133 32.8359 28.6113 31.934 27.5019 31.934C26.3925 31.934 25.4906 32.8359 25.4906 33.9453C25.4906 35.0547 26.3925 35.9566 27.5019 35.9566C28.6113 35.9566 29.5133 35.0547 29.5133 33.9453Z" fill="black" stroke="#15E49E" stroke-width="0.8"/>
</svg>
