<svg width="55" height="45" viewBox="0 0 55 45" fill="none" xmlns="http://www.w3.org/2000/svg">
<path d="M41.4277 7.88464L41.4275 7.88449C40.7975 7.21633 39.746 7.18566 39.0775 7.81636L41.4277 7.88464ZM41.4277 7.88464L54.1465 21.3597C54.1465 21.3597 54.1465 21.3597 54.1465 21.3597C54.7509 22.0002 54.7511 23.001 54.1466 23.6424C54.1465 23.6424 54.1465 23.6425 54.1465 23.6425L41.428 37.1179L41.4277 7.88464ZM39.0098 10.1666L39.0099 10.1666L50.3929 22.2254L50.6521 22.5L50.3929 22.7746L39.0099 34.8348L39.0098 34.8349C38.3794 35.5024 38.41 36.5542 39.0776 37.1852C39.3991 37.4883 39.809 37.6383 40.2185 37.6383C40.661 37.6383 41.1015 37.4631 41.4278 37.1181L39.0098 10.1666ZM39.0098 10.1666C38.3793 9.49897 38.4101 8.4467 39.0774 7.81646L39.0098 10.1666Z" fill="#15E49E" stroke="black" stroke-width="0.8"/>
<path d="M4.60838 22.2254L4.34924 22.4999L4.60838 22.7745L15.9906 34.834C15.9906 34.834 15.9906 34.8341 15.9907 34.8341C16.6209 35.502 16.5908 36.5542 15.9226 37.1841L15.9223 37.1844C15.6014 37.4877 15.1913 37.6383 14.7821 37.6383C14.3395 37.6383 13.8997 37.4637 13.5729 37.1175C13.5729 37.1175 13.5729 37.1175 13.5729 37.1174L0.85344 23.6418C0.248849 23.0011 0.24887 21.9996 0.853405 21.359C0.853411 21.359 0.853416 21.359 0.853421 21.359L13.5722 7.88392L13.5723 7.88385C14.2023 7.21608 15.2553 7.18571 15.9224 7.81563L15.9225 7.81576C16.5902 8.44572 16.6207 9.49816 15.9906 10.166L4.60838 22.2254Z" fill="#15E49E" stroke="black" stroke-width="0.8"/>
<path d="M28.8834 2.44908L28.8834 2.4491L22.8334 42.0493C22.8334 42.0493 22.8334 42.0493 22.8334 42.0493C22.6949 42.9567 23.3178 43.8047 24.2246 43.9439C24.311 43.9568 24.3957 43.963 24.4799 43.963C25.2869 43.963 25.9951 43.3735 26.1209 42.5515L28.8834 2.44908ZM28.8834 2.44908C29.0219 1.54254 29.8707 0.919055 30.7786 1.05648C31.686 1.19514 32.3094 2.0434 32.1709 2.95123C32.1709 2.95125 32.1709 2.95127 32.1709 2.95129L26.1209 42.5514L28.8834 2.44908Z" fill="#15E49E" stroke="black" stroke-width="0.8"/>
</svg>
